<svg viewBox="0 0 124 26" fill="none" xmlns="http://www.w3.org/2000/svg"><path fill-rule="evenodd" clip-rule="evenodd" d="M79.453 1.044v18.902h3.184v-7.113h5.031c1.27 0 2.369-.265 3.297-.794.929-.529 1.64-1.237 2.132-2.125.493-.907.74-1.899.74-2.976 0-1.076-.247-2.059-.74-2.947a5.426 5.426 0 0 0-2.132-2.153c-.91-.53-2.008-.794-3.297-.794h-8.215Zm3.184 8.983h4.605c.644 0 1.212-.122 1.705-.368.512-.265.91-.633 1.194-1.105.284-.473.426-1.011.426-1.616 0-.604-.142-1.143-.426-1.615a2.747 2.747 0 0 0-1.194-1.077c-.493-.264-1.061-.396-1.705-.396h-4.605v6.177ZM100.7 20.286c-1.175 0-2.227-.284-3.155-.85-.929-.586-1.658-1.417-2.189-2.494-.512-1.077-.767-2.352-.767-3.826 0-1.454.255-2.72.767-3.797.53-1.096 1.26-1.937 2.189-2.522.928-.586 1.98-.879 3.155-.879.947 0 1.838.236 2.672.709a5.492 5.492 0 0 1 1.791 1.556V6.258h2.842v13.688h-2.842v-1.92a6.027 6.027 0 0 1-1.791 1.58 5.405 5.405 0 0 1-2.672.68Zm3.098-11.137c.61.358 1.065.774 1.365 1.248v5.476c-.3.486-.755.909-1.365 1.267-.739.416-1.497.624-2.274.624-1.213 0-2.179-.425-2.9-1.276-.7-.869-1.05-1.993-1.05-3.372 0-.907.15-1.71.454-2.409a3.83 3.83 0 0 1 1.393-1.643c.606-.397 1.307-.595 2.103-.595.777 0 1.535.226 2.274.68Zm7.392 13.602c.133.076.313.132.54.17.228.038.455.057.683.057.454 0 .833-.095 1.137-.284.303-.188.549-.5.739-.935l.719-1.66-5.637-13.84h3.042l4.093 10.4 4.093-10.4h3.07l-6.68 16.237c0 .019-.01.029-.028.029v.056c-.304.7-.673 1.266-1.109 1.7a3.855 3.855 0 0 1-1.478.936c-.55.189-1.175.283-1.876.283a8.05 8.05 0 0 1-.938-.057 6.725 6.725 0 0 1-.825-.141l.455-2.55Z" fill="#000"/><path fill-rule="evenodd" clip-rule="evenodd" d="M9.803 20.275c2.208 0 3.98-1.088 5.316-3.588l2.972-5.546v4.703c0 2.772 1.8 4.43 4.581 4.43 2.181 0 3.79-.95 5.344-3.588L34.86 5.161c1.5-2.528.436-4.43-2.863-4.43-1.772 0-2.917.57-3.953 2.5l-4.718 8.835V4.21c0-2.338-1.117-3.48-3.19-3.48-1.636 0-2.944.707-3.953 2.664l-4.445 8.671V4.292c0-2.5-1.036-3.56-3.544-3.56H3.068C1.132.73.15 1.626.15 3.284c0 1.659 1.037 2.61 2.918 2.61h2.1v9.922c0 2.8 1.88 4.458 4.635 4.458ZM44.868.73c-5.59 0-9.87 4.16-9.87 9.786 0 5.627 4.308 9.759 9.87 9.759 5.562 0 9.816-4.16 9.843-9.759 0-5.627-4.28-9.786-9.843-9.786Zm0 13.537c-2.1 0-3.545-1.576-3.545-3.751s1.445-3.778 3.545-3.778c2.1 0 3.544 1.603 3.544 3.778s-1.417 3.751-3.544 3.751ZM56.1 10.516C56.1 4.889 60.381.73 65.943.73c5.563 0 9.843 4.186 9.843 9.786s-4.28 9.759-9.843 9.759c-5.562 0-9.843-4.132-9.843-9.759Zm6.326 0c0 2.175 1.39 3.751 3.517 3.751 2.1 0 3.545-1.576 3.545-3.751s-1.445-3.778-3.545-3.778c-2.1 0-3.517 1.603-3.517 3.778Z" fill="#873EFF"/></svg>
