<svg width="284" height="19" viewBox="0 0 284 19" fill="none" xmlns="http://www.w3.org/2000/svg"><rect x="0.03125" y="0.501221" width="28.4961" height="17.9975" rx="1.49979" fill="white"/><rect x="0.406199" y="0.876169" width="27.7462" height="17.2476" rx="1.12485" stroke="black" stroke-opacity="0.25" stroke-width="0.749897"/><path d="M12.7906 12.7644H11.0713L12.1467 6.46497H13.8659L12.7906 12.7644Z" fill="#1C34C3"/><path d="M19.0237 6.6189C18.6846 6.49144 18.1467 6.35071 17.4816 6.35071C15.7837 6.35071 14.5881 7.20846 14.5808 8.43479C14.5667 9.33957 15.4368 9.84211 16.0876 10.1438C16.7528 10.4521 16.9789 10.6533 16.9789 10.9281C16.9721 11.3501 16.4414 11.5446 15.9464 11.5446C15.26 11.5446 14.8921 11.4443 14.3332 11.2095L14.1068 11.1089L13.8662 12.523C14.2695 12.697 15.0124 12.8515 15.7837 12.8582C17.5878 12.8582 18.7623 12.0138 18.7762 10.7069C18.783 9.98979 18.3236 9.44031 17.333 8.99131C16.7316 8.70307 16.3634 8.50872 16.3634 8.21381C16.3704 7.9457 16.6749 7.6711 17.3537 7.6711C17.9126 7.65765 18.3233 7.78493 18.6344 7.9123L18.7899 7.97919L19.0237 6.6189Z" fill="#1C34C3"/><path fill-rule="evenodd" clip-rule="evenodd" d="M22.1014 6.46533H23.4313L24.8184 12.7647H23.2264C23.2264 12.7647 23.0707 12.0409 23.0213 11.8197H20.8138L20.453 12.7647H18.6489L21.2028 6.988C21.3797 6.57916 21.6913 6.46533 22.1014 6.46533ZM21.9952 8.77035C21.9952 8.77035 21.4503 10.171 21.3087 10.5329H22.7378C22.6671 10.2179 22.3415 8.71005 22.3415 8.71005L22.2214 8.16725C22.1708 8.30702 22.0976 8.49918 22.0482 8.62879C22.0148 8.71666 21.9923 8.77578 21.9952 8.77035Z" fill="#1C34C3"/><path fill-rule="evenodd" clip-rule="evenodd" d="M3.62254 6.46533H6.38878C6.76372 6.4786 7.06797 6.59253 7.16697 6.99486L7.7679 9.88799C7.76808 9.88858 7.76826 9.88917 7.76845 9.88975L7.95244 10.761L9.63623 6.46533H11.4543L8.75179 12.7581H6.93365L5.40123 7.28452C4.87246 6.99163 4.26898 6.75608 3.59424 6.59261L3.62254 6.46533Z" fill="#1C34C3"/><rect x="36.5273" y="0.501221" width="28.4961" height="17.9975" rx="1.49979" fill="white"/><rect x="36.9023" y="0.876169" width="27.7462" height="17.2476" rx="1.12485" stroke="black" stroke-opacity="0.25" stroke-width="0.749897"/><path fill-rule="evenodd" clip-rule="evenodd" d="M60.2796 12.6978V12.4868H60.2255L60.1628 12.6321L60.1 12.4868H60.0456V12.6978H60.0841V12.5388L60.1427 12.676H60.1828L60.2414 12.5384V12.6978H60.28H60.2796ZM59.9348 12.6978V12.5228H60.0047V12.4872H59.827V12.5228H59.897V12.6978H59.9348ZM60.291 9.56177C60.291 12.8262 57.6788 15.4723 54.4564 15.4723C51.2347 15.4723 48.6226 12.8262 48.6226 9.56177C48.6226 6.29776 51.2347 3.65125 54.4568 3.65125C57.6788 3.65125 60.291 6.29776 60.291 9.56177Z" fill="#F79F1A"/><path fill-rule="evenodd" clip-rule="evenodd" d="M53.0937 9.56177C53.0937 12.8262 50.4816 15.4723 47.2595 15.4723C44.0378 15.4723 41.4253 12.8262 41.4253 9.56177C41.4253 6.29776 44.0374 3.65125 47.2599 3.65125C50.4816 3.65125 53.0937 6.29776 53.0937 9.56177Z" fill="#EA001B"/><path fill-rule="evenodd" clip-rule="evenodd" d="M50.8578 4.90942C50.1604 5.46267 49.5967 6.16908 49.2095 6.97511C48.8223 7.78115 48.6218 8.66567 48.6231 9.56166C48.6231 11.4504 49.4965 13.1329 50.8578 14.215C52.2191 13.1329 53.0926 11.4504 53.0926 9.56166C53.0939 8.66567 52.8933 7.78115 52.5061 6.97511C52.1189 6.16908 51.5553 5.46267 50.8578 4.90942Z" fill="#FF5F01"/><g clip-path="url(#clip0_4985_5077)"><rect x="73.0234" y="0.501221" width="28.4961" height="17.9975" rx="1.49979" fill="white"/><rect x="73.0234" y="0.501221" width="28.4961" height="17.9975" fill="url(#paint0_linear_4985_5077)"/><path d="M73.0234 1.14114V17.8588C73.0234 18.0286 73.0234 18.4987 73.0234 18.4987C73.0234 18.4987 73.4869 18.4988 73.6541 18.4988H91.1492C93.5013 18.4988 95.757 17.5509 97.4205 15.8637C99.084 14.1765 100.019 11.8881 100.02 9.50159C100.02 8.31965 99.7903 7.14927 99.3445 6.0573C98.8987 4.96533 98.2453 3.97313 97.4216 3.13737C96.5979 2.30161 95.62 1.63865 94.5438 1.18634C93.4676 0.734027 92.3141 0.501226 91.1492 0.501226H73.6541C73.4869 0.501226 73.0234 0.501221 73.0234 0.501221C73.0234 0.501221 73.0234 0.971423 73.0234 1.14114Z" fill="white"/><path d="M76.2908 8.10681H75.2729V11.6448H76.2736C76.7324 11.6702 77.1841 11.5245 77.541 11.2361C77.7433 11.0716 77.9067 10.8647 78.0197 10.6301C78.1327 10.3955 78.1925 10.1389 78.1947 9.87867C78.1947 8.83556 77.4206 8.10681 76.2908 8.10681ZM77.0994 10.7646C76.8328 10.9801 76.492 11.0827 76.1503 11.0504H75.9668V8.70696H76.1503C76.3196 8.68987 76.4906 8.70632 76.6535 8.75537C76.8164 8.80441 76.9679 8.88509 77.0994 8.99274C77.2206 9.10532 77.3173 9.24157 77.3834 9.393C77.4495 9.54444 77.4836 9.70781 77.4836 9.87296C77.4844 10.0399 77.4506 10.2052 77.3845 10.3586C77.3184 10.512 77.2214 10.6502 77.0994 10.7646Z" fill="#261F20"/><path d="M79.2066 8.10681H78.5156V11.6448H79.2066V8.10681Z" fill="#261F20"/><path d="M80.8986 9.46396C80.4828 9.3125 80.3624 9.20961 80.3624 9.021C80.3624 8.83238 80.5803 8.62662 80.8785 8.62662C80.987 8.6286 81.0936 8.6554 81.19 8.70495C81.2865 8.7545 81.3702 8.82548 81.4347 8.9124L81.7989 8.438C81.5117 8.18305 81.1398 8.04352 80.7552 8.04647C80.6151 8.03798 80.4747 8.05775 80.3424 8.1046C80.2101 8.15145 80.0887 8.22442 79.9853 8.31914C79.882 8.41385 79.7989 8.52838 79.741 8.65585C79.6831 8.78332 79.6516 8.92112 79.6484 9.06101C79.6484 9.54684 79.8721 9.79833 80.5229 10.0298C80.688 10.0815 80.8474 10.1494 80.9989 10.2327C81.0632 10.2697 81.1165 10.3231 81.1533 10.3874C81.1901 10.4517 81.209 10.5245 81.2082 10.5985C81.2076 10.6671 81.1929 10.7348 81.1651 10.7975C81.1373 10.8602 81.0969 10.9165 81.0464 10.9631C80.9959 11.0097 80.9364 11.0455 80.8715 11.0683C80.8067 11.0911 80.7378 11.1005 80.6692 11.0958C80.5111 11.0986 80.3557 11.0555 80.2218 10.9718C80.0878 10.8881 79.9813 10.7673 79.9151 10.6242L79.4678 11.0529C79.593 11.2646 79.7729 11.4388 79.9888 11.5575C80.2047 11.6761 80.4486 11.7348 80.695 11.7274C80.8534 11.7381 81.0124 11.7159 81.1618 11.6621C81.3112 11.6084 81.4478 11.5244 81.5629 11.4153C81.678 11.3062 81.7691 11.1745 81.8304 11.0285C81.8918 10.8825 81.9221 10.7254 81.9193 10.5671C81.9193 10.007 81.6871 9.7526 80.8986 9.46396Z" fill="#261F20"/><path d="M82.1402 9.87814C82.1379 10.1232 82.1849 10.3662 82.2786 10.5927C82.3723 10.8193 82.5107 11.0248 82.6856 11.197C82.8605 11.3692 83.0684 11.5046 83.2968 11.5952C83.5253 11.6858 83.7696 11.7297 84.0154 11.7243C84.3153 11.7203 84.61 11.6459 84.8756 11.5071V10.7069C84.7719 10.8272 84.6434 10.9238 84.499 10.9904C84.3546 11.0569 84.1975 11.0918 84.0384 11.0927C83.8772 11.0995 83.7164 11.0724 83.5665 11.013C83.4166 10.9537 83.2809 10.8635 83.1683 10.7483C83.0557 10.6332 82.9688 10.4956 82.9132 10.3447C82.8576 10.1938 82.8345 10.0328 82.8456 9.87243C82.8394 9.71496 82.8651 9.55786 82.921 9.41045C82.9768 9.26303 83.0619 9.1283 83.171 9.01424C83.28 8.90017 83.411 8.8091 83.5561 8.74641C83.7011 8.68371 83.8573 8.65068 84.0154 8.64927C84.1792 8.6509 84.3406 8.68745 84.489 8.75646C84.6374 8.82547 84.7692 8.92535 84.8756 9.04937V8.24632C84.6124 8.10103 84.3163 8.02527 84.0154 8.02626C83.7703 8.02514 83.5274 8.07214 83.3005 8.1646C83.0736 8.25705 82.8671 8.39315 82.693 8.56511C82.5189 8.73707 82.3804 8.94154 82.2856 9.16683C82.1907 9.39212 82.1413 9.63383 82.1402 9.87814Z" fill="#261F20"/><path d="M90.3697 10.4845L89.4235 8.10681H88.6665L90.1747 11.7363H90.5475L92.0786 8.10681H91.3302L90.3697 10.4845Z" fill="#261F20"/><path d="M92.394 11.6448H94.3553V11.0475H93.0851V10.093H94.3094V9.49286H93.0851V8.70696H94.3553V8.10681H92.394V11.6448Z" fill="#261F20"/><path d="M97.0987 9.15278C97.0987 8.48976 96.64 8.10681 95.84 8.10681H94.8135V11.6448H95.5045V10.2159H95.5963L96.5539 11.6448H97.4141L96.2959 10.1559C96.532 10.1205 96.7459 9.99744 96.8948 9.8114C97.0437 9.62536 97.1166 9.39009 97.0987 9.15278ZM95.7081 9.72435H95.5045V8.66409H95.7195C96.1496 8.66409 96.3848 8.84413 96.3848 9.18993C96.3848 9.53573 96.1496 9.73578 95.7081 9.73578V9.72435Z" fill="#261F20"/><path d="M97.6493 8.29254C97.6493 8.23261 97.6063 8.19836 97.5319 8.19836H97.4316V8.50945H97.5061V8.38958L97.592 8.50945H97.6836L97.5805 8.38102C97.6007 8.37694 97.6188 8.36576 97.6314 8.34952C97.644 8.33328 97.6504 8.31306 97.6493 8.29254ZM97.5175 8.33535V8.25544C97.5548 8.25544 97.5748 8.25544 97.5748 8.2954C97.5748 8.33535 97.5548 8.33535 97.5175 8.33535Z" fill="#261F20"/><path d="M97.5459 8.07825C97.4885 8.09704 97.4386 8.1334 97.4032 8.18216C97.3678 8.23091 97.3487 8.28956 97.3487 8.34974C97.3487 8.40993 97.3678 8.46858 97.4032 8.51733C97.4386 8.56608 97.4885 8.60244 97.5459 8.62124C97.6033 8.60244 97.6532 8.56608 97.6886 8.51733C97.7241 8.46858 97.7431 8.40993 97.7431 8.34974C97.7431 8.28956 97.7241 8.23091 97.6886 8.18216C97.6532 8.1334 97.6033 8.09704 97.5459 8.07825ZM97.5459 8.57265C97.4866 8.57265 97.4297 8.54917 97.3878 8.50736C97.3458 8.46556 97.3223 8.40886 97.3223 8.34974C97.3223 8.29062 97.3458 8.23392 97.3878 8.19212C97.4297 8.15032 97.4866 8.12683 97.5459 8.12683C97.6052 8.12683 97.6621 8.15032 97.7041 8.19212C97.746 8.23392 97.7696 8.29062 97.7696 8.34974C97.7696 8.40886 97.746 8.46556 97.7041 8.50736C97.6621 8.54917 97.6052 8.57265 97.5459 8.57265Z" fill="#261F20"/><path d="M88.864 9.8725C88.8645 10.2435 88.7546 10.6064 88.5482 10.9151C88.3417 11.2239 88.048 11.4646 87.7041 11.6068C87.3603 11.7491 86.9819 11.7865 86.6168 11.7142C86.2516 11.642 85.9162 11.4634 85.653 11.201C85.3897 10.9386 85.2105 10.6043 85.1381 10.2404C85.0656 9.87647 85.1031 9.49928 85.2458 9.1566C85.3885 8.81392 85.63 8.52115 85.9398 8.31537C86.2496 8.10959 86.6136 8.00005 86.9859 8.00061C87.4837 8.00137 87.961 8.19883 88.313 8.54971C88.6651 8.90059 88.8632 9.37628 88.864 9.8725Z" fill="url(#paint1_linear_4985_5077)"/><path style="mix-blend-mode:multiply" opacity="0.65" d="M88.864 9.8725C88.8645 10.2435 88.7546 10.6064 88.5482 10.9151C88.3417 11.2239 88.048 11.4646 87.7041 11.6068C87.3603 11.7491 86.9819 11.7865 86.6168 11.7142C86.2516 11.642 85.9162 11.4634 85.653 11.201C85.3897 10.9386 85.2105 10.6043 85.1381 10.2404C85.0656 9.87647 85.1031 9.49928 85.2458 9.1566C85.3885 8.81392 85.63 8.52115 85.9398 8.31537C86.2496 8.10959 86.6136 8.00005 86.9859 8.00061C87.4837 8.00137 87.961 8.19883 88.313 8.54971C88.6651 8.90059 88.8632 9.37628 88.864 9.8725Z" fill="url(#paint2_linear_4985_5077)"/></g><rect x="73.3984" y="0.876169" width="27.7462" height="17.2476" rx="1.12485" stroke="black" stroke-opacity="0.25" stroke-width="0.749897"/><rect x="109.52" y="0.501221" width="28.4961" height="17.9975" rx="1.49979" fill="white"/><rect x="109.894" y="0.876169" width="27.7462" height="17.2476" rx="1.12485" stroke="black" stroke-opacity="0.25" stroke-width="0.749897"/><path d="M126.053 9.49087C126.051 8.00739 125.149 6.74281 123.879 6.24171V12.74C125.149 12.2381 126.051 10.9747 126.053 9.49087ZM121.455 12.7384V6.24211C120.186 6.74508 119.286 8.0082 119.283 9.49087C119.286 10.9732 120.186 12.2367 121.455 12.7384ZM122.668 3.99848C119.718 3.99953 117.328 6.45756 117.328 9.49087C117.328 12.5238 119.718 14.9814 122.668 14.9818C125.617 14.9814 128.008 12.5238 128.009 9.49087C128.008 6.45756 125.617 3.99953 122.668 3.99848ZM122.655 15.5005C119.427 15.516 116.77 12.8272 116.77 9.55352C116.77 5.97619 119.427 3.50161 122.655 3.50226H124.168C127.357 3.50161 130.268 5.97459 130.268 9.55352C130.268 12.8256 127.357 15.5005 124.168 15.5005H122.655Z" fill="#254D98"/><g clip-path="url(#clip1_4985_5077)"><rect x="146.016" y="0.501221" width="28.4961" height="17.9975" rx="1.49979" fill="white"/><path d="M170.94 4.92569L171.515 3.36094L174.016 3.34894V0.501221L145.52 0.513229V18.4988L174.016 18.4867V15.645L171.665 15.657L170.748 14.5839L169.794 15.657H162.744V9.94365H160.418L163.326 3.36094H166.155L166.839 4.85374V3.36094H170.352L170.94 4.92569ZM168.955 5.96285L168.949 5.33335L169.189 5.96285L170.358 9.08632H171.521L172.696 5.96285L172.924 5.33935V9.08632L174.016 9.07431V4.27818L172.115 4.29019L171.191 6.72425L170.946 7.3837L170.694 6.72425L169.765 4.29019H167.732V9.08632H168.955V5.96285ZM166.323 9.08632H167.732L165.622 4.29019H163.985L161.863 9.08632H163.254L163.625 8.16308H165.952L166.323 9.08632ZM164.549 5.9149L164.788 5.31537L165.028 5.9149L165.526 7.12589H164.051L164.549 5.9149ZM163.727 9.94961V14.7278H167.732V13.6906H164.95V12.8573H167.678V11.8261H164.95V10.9868H167.732V9.94961H163.727ZM172.187 14.7278H173.775L171.533 12.3297L173.775 9.94961H172.211L170.766 11.5024L169.327 9.94961H167.732L169.968 12.3477L167.732 14.7278H169.279L170.736 13.169L172.187 14.7278ZM172.792 12.3237L174.016 13.6906V10.9508L172.792 12.3237Z" fill="#006FCF"/></g><rect x="146.391" y="0.876169" width="27.7462" height="17.2476" rx="1.12485" stroke="black" stroke-opacity="0.25" stroke-width="0.749897"/><rect x="182.512" y="0.501221" width="28.4961" height="17.9975" rx="1.49979" fill="#0E4C96"/><rect x="182.887" y="0.876169" width="27.7462" height="17.2476" rx="1.12485" stroke="black" stroke-opacity="0.25" stroke-width="0.749897"/><path fill-rule="evenodd" clip-rule="evenodd" d="M204.754 13.1476C204.754 13.478 204.689 13.8052 204.564 14.1105C204.439 14.4158 204.255 14.6932 204.024 14.9268C203.793 15.1605 203.519 15.3459 203.216 15.4723C202.914 15.5988 202.591 15.6639 202.264 15.6639H188.745V5.71719C188.745 5.38672 188.809 5.05948 188.935 4.75415C189.06 4.44882 189.243 4.17138 189.474 3.93769C189.706 3.70399 189.98 3.51861 190.282 3.39214C190.584 3.26566 190.908 3.20056 191.235 3.20056H204.754V13.1476Z" fill="white"/><path fill-rule="evenodd" clip-rule="evenodd" d="M200.346 9.65036C200.732 9.65904 201.12 9.63333 201.505 9.66372C201.894 9.73717 201.988 10.3332 201.642 10.5285C201.406 10.6567 201.126 10.5759 200.87 10.5986H200.346V9.65036ZM201.728 8.57719C201.814 8.88305 201.522 9.15819 201.23 9.11578H200.346C200.352 8.82729 200.334 8.51409 200.355 8.24095C200.709 8.25097 201.067 8.22025 201.419 8.25665C201.495 8.27583 201.564 8.31598 201.619 8.3726C201.673 8.42921 201.711 8.50005 201.728 8.57719ZM203.857 4.03944C203.873 4.62377 203.859 5.23882 203.864 5.83518C203.863 8.25932 203.866 10.6835 203.862 13.1073C203.847 14.0155 203.05 14.8048 202.157 14.8232C201.263 14.8265 200.37 14.8235 199.476 14.8245V11.1599C200.45 11.1549 201.424 11.1703 202.397 11.1523C202.849 11.1235 203.344 10.8227 203.365 10.3205C203.418 9.81631 202.947 9.46738 202.501 9.41229C202.329 9.40761 202.334 9.36153 202.501 9.3415C202.927 9.24834 203.261 8.80291 203.136 8.35648C203.029 7.88701 202.515 7.70537 202.088 7.70637C201.218 7.70036 200.347 7.70537 199.476 7.7037C199.482 7.01953 199.464 6.3347 199.485 5.65119C199.554 4.759 200.371 4.02341 201.252 4.03944H203.857Z" fill="url(#paint3_linear_4985_5077)"/><path fill-rule="evenodd" clip-rule="evenodd" d="M189.637 5.74367C189.659 4.83679 190.459 4.05378 191.351 4.04076C192.241 4.03776 193.132 4.04009 194.022 4.03943C194.02 7.07394 194.027 10.1088 194.018 13.1436C193.984 14.0395 193.193 14.8075 192.311 14.8232C191.418 14.8265 190.526 14.8238 189.634 14.8245V11.0364C190.501 11.2434 191.41 11.3312 192.293 11.194C192.822 11.1082 193.4 10.8461 193.579 10.2921C193.711 9.81796 193.637 9.31945 193.656 8.83295V7.70369H192.126C192.12 8.45063 192.14 9.19891 192.115 9.94518C192.074 10.4036 191.625 10.6951 191.197 10.6798C190.666 10.6851 189.614 10.2908 189.614 10.2908C189.611 8.89105 189.629 7.13872 189.637 5.74367Z" fill="url(#paint4_linear_4985_5077)"/><path fill-rule="evenodd" clip-rule="evenodd" d="M194.592 8.15998C194.512 8.17734 194.576 7.88284 194.555 7.77098C194.561 7.06478 194.544 6.3579 194.565 5.65236C194.633 4.7565 195.457 4.01891 196.34 4.03961H198.943C198.941 7.07479 198.948 10.1093 198.94 13.1438C198.905 14.04 198.113 14.808 197.232 14.8237C196.339 14.827 195.447 14.8244 194.555 14.825V10.6746C195.165 11.1801 195.992 11.2589 196.752 11.2599C197.324 11.2599 197.893 11.1708 198.449 11.0372V10.2773C197.822 10.5928 197.086 10.7931 196.392 10.6118C195.908 10.49 195.556 10.0172 195.564 9.51196C195.508 8.98673 195.812 8.43245 196.323 8.27651C196.958 8.0755 197.648 8.2291 198.243 8.48988C198.37 8.55733 198.499 8.6408 198.449 8.42577V7.82808C197.454 7.58901 196.397 7.50086 195.398 7.7613C195.109 7.84344 194.827 7.96832 194.592 8.16032V8.15998Z" fill="url(#paint5_linear_4985_5077)"/><rect x="219.008" y="0.501221" width="28.4961" height="17.9975" rx="1.49979" fill="url(#paint6_linear_4985_5077)"/><rect x="219.383" y="0.876169" width="27.7462" height="17.2476" rx="1.12485" stroke="black" stroke-opacity="0.25" stroke-width="0.749897"/><path fill-rule="evenodd" clip-rule="evenodd" d="M228.955 9.36281H233.7C233.658 8.32626 233.419 7.2576 232.694 6.57116C231.831 5.75349 230.318 5.4502 228.967 5.4502C227.56 5.4502 226.005 5.78286 225.137 6.66018C224.388 7.41591 224.227 8.63186 224.227 9.72438C224.227 10.8688 224.543 12.1999 225.355 12.9666C226.219 13.7824 227.618 13.999 228.967 13.999C230.278 13.999 231.698 13.7545 232.556 12.9799C233.412 12.2063 233.708 10.9032 233.708 9.72438V9.71887H228.955V9.36281ZM234.019 9.71908V13.8079H240.62V13.8024C241.586 13.7492 242.355 12.8691 242.355 11.7885C242.355 10.7074 241.586 9.77093 240.62 9.71724V9.71908H234.019ZM240.544 5.62094C241.486 5.62094 242.233 6.44641 242.233 7.488C242.233 8.47407 241.547 9.27935 240.674 9.3624H234.018V5.61497H240.336C240.375 5.61017 240.42 5.61355 240.465 5.61685C240.492 5.61891 240.519 5.62094 240.544 5.62094Z" fill="#FEFEFE"/><rect x="255.504" y="0.501221" width="28.4961" height="17.9975" rx="1.49979" fill="white"/><rect x="255.879" y="0.876169" width="27.7462" height="17.2476" rx="1.12485" stroke="black" stroke-opacity="0.25" stroke-width="0.749897"/><path d="M263.818 3.20068H268.739C269.426 3.20068 269.854 3.76677 269.693 4.46308L267.403 14.4039C267.241 15.0979 266.554 15.664 265.866 15.664H260.944C260.258 15.664 259.83 15.0979 259.991 14.4039L262.282 4.46308C262.443 3.76677 263.13 3.20068 263.818 3.20068Z" fill="#E21836"/><path d="M268.33 3.20068H273.989C274.676 3.20068 274.366 3.76677 274.205 4.46308L271.914 14.4039C271.753 15.0979 271.803 15.664 271.115 15.664H265.455C264.767 15.664 264.341 15.0979 264.503 14.4039L266.794 4.46308C266.955 3.76677 267.642 3.20068 268.329 3.20068" fill="#00447C"/><path d="M273.765 3.20068H278.687C279.374 3.20068 279.802 3.76677 279.64 4.46308L277.349 14.4039C277.187 15.0979 276.5 15.664 275.812 15.664H270.893C270.204 15.664 269.778 15.0979 269.938 14.4039L272.23 4.46308C272.389 3.76677 273.077 3.20068 273.765 3.20068Z" fill="#007B84"/><path d="M265.103 6.38659C264.597 6.39126 264.447 6.38659 264.4 6.37489C264.382 6.463 264.04 8.05522 264.039 8.056C263.965 8.37803 263.912 8.60805 263.731 8.7562C263.629 8.84165 263.5 8.88705 263.367 8.88408C263.143 8.88408 263.012 8.77102 262.99 8.55737L262.986 8.48407L263.054 8.05054C263.054 8.05054 263.413 6.60023 263.477 6.40842L263.482 6.38659C262.785 6.39282 262.66 6.38659 262.652 6.37489C262.647 6.39048 262.63 6.48015 262.63 6.48015L262.264 8.11526L262.232 8.25405L262.171 8.70786C262.168 8.8251 262.194 8.94124 262.249 9.0447C262.416 9.33944 262.892 9.38389 263.16 9.38389C263.508 9.38389 263.833 9.30903 264.052 9.17336C264.434 8.94568 264.534 8.58934 264.623 8.27277L264.664 8.11058C264.664 8.11058 265.033 6.60413 265.096 6.40842C265.097 6.40078 265.099 6.39339 265.103 6.38659H265.103ZM266.36 7.60141C266.271 7.60141 266.108 7.62325 265.961 7.69576C265.909 7.72383 265.859 7.75502 265.806 7.78699L265.853 7.61233L265.827 7.58348C265.518 7.64664 265.448 7.65522 265.162 7.69576L265.138 7.71136C265.105 7.9905 265.075 8.19947 264.952 8.74685C264.905 8.9488 264.856 9.15231 264.808 9.35348L264.821 9.37921C265.114 9.36362 265.203 9.36362 265.458 9.36751L265.478 9.3449C265.511 9.17726 265.515 9.13827 265.586 8.79909C265.62 8.63768 265.691 8.28446 265.725 8.15815C265.783 8.12552 265.846 8.10533 265.912 8.09889C266.055 8.09889 266.038 8.2252 266.032 8.27511C266.004 8.47541 265.967 8.67422 265.92 8.87082L265.885 9.02287C265.86 9.13593 265.833 9.2451 265.808 9.3566L265.819 9.37921C266.108 9.36362 266.196 9.36362 266.443 9.36751L266.472 9.3449C266.516 9.08369 266.529 9.01352 266.609 8.63222L266.649 8.45678C266.726 8.1137 266.765 7.9406 266.706 7.79869C266.644 7.6404 266.496 7.60141 266.359 7.60141H266.36ZM267.763 7.96009C267.609 7.9905 267.511 8.01 267.414 8.02247C267.317 8.03885 267.223 8.05366 267.074 8.07393L267.062 8.08485L267.052 8.09265C267.036 8.20493 267.025 8.30162 267.005 8.41546C266.988 8.53242 266.961 8.66575 266.917 8.85757C266.9 8.94239 266.877 9.02579 266.847 9.10708C266.829 9.15933 266.808 9.20923 266.77 9.35348L266.779 9.36674L266.786 9.37921C266.925 9.37219 267.016 9.36751 267.109 9.36674C267.202 9.36362 267.299 9.36673 267.448 9.36751L267.461 9.35738L267.475 9.3449C267.497 9.21469 267.5 9.1796 267.514 9.11644C267.526 9.0486 267.549 8.95425 267.604 8.7024C267.63 8.58388 267.66 8.46614 267.687 8.34528L267.772 7.98816L267.769 7.97413L267.763 7.96087V7.96009ZM267.766 7.47666C267.627 7.39322 267.381 7.41974 267.217 7.53514C267.052 7.64742 267.033 7.80804 267.172 7.89226C267.309 7.97335 267.556 7.94918 267.719 7.833C267.883 7.71759 267.904 7.55931 267.765 7.47666H267.766ZM268.61 9.40494C268.893 9.40494 269.183 9.32697 269.4 9.09305C269.568 8.90357 269.645 8.62209 269.671 8.50591C269.758 8.1215 269.691 7.94216 269.606 7.833C269.477 7.66613 269.249 7.61233 269.013 7.61233C268.871 7.61233 268.533 7.62715 268.269 7.87276C268.079 8.05054 267.991 8.29148 267.938 8.52228C267.885 8.75776 267.824 9.18194 268.209 9.33944C268.329 9.39091 268.5 9.40494 268.61 9.40494ZM268.589 8.54022C268.654 8.24937 268.731 8.00454 268.927 8.00454C269.081 8.00454 269.092 8.18622 269.023 8.47862C269.011 8.54333 268.954 8.78427 268.879 8.8872C268.826 8.96283 268.763 9.00884 268.694 9.00884C268.673 9.00884 268.55 9.00884 268.549 8.82482C268.548 8.73359 268.566 8.6408 268.589 8.54022ZM270.378 9.36751L270.4 9.3449C270.431 9.17726 270.436 9.13827 270.505 8.79909C270.54 8.63768 270.612 8.28446 270.646 8.15815C270.71 8.12852 270.772 8.09889 270.833 8.09889C270.975 8.09889 270.958 8.2252 270.952 8.27511C270.947 8.35932 270.895 8.63378 270.841 8.87082L270.807 9.02287C270.781 9.13593 270.753 9.2451 270.728 9.3566L270.739 9.37999C271.029 9.36362 271.114 9.36362 271.362 9.36751L271.393 9.3449C271.436 9.08291 271.448 9.01352 271.529 8.63222L271.568 8.45678C271.645 8.1137 271.685 7.9406 271.627 7.79869C271.564 7.6404 271.414 7.60141 271.28 7.60141C271.081 7.60453 270.888 7.66931 270.727 7.78699L270.772 7.61233L270.748 7.58348C270.438 7.64664 270.367 7.65522 270.081 7.69576L270.059 7.71136C270.018 8.05993 269.956 8.4057 269.873 8.74685C269.826 8.9488 269.778 9.15231 269.729 9.35348L269.742 9.37921C270.036 9.36362 270.123 9.36362 270.378 9.36751ZM272.509 9.37921C272.527 9.28954 272.635 8.75542 272.637 8.75542C272.637 8.75542 272.729 8.36555 272.734 8.35074C272.734 8.35074 272.763 8.31019 272.792 8.29382H272.835C273.238 8.29382 273.693 8.29382 274.049 8.02871C274.298 7.83709 274.469 7.56127 274.532 7.25209C274.551 7.17256 274.566 7.07743 274.566 6.9823C274.566 6.85755 274.54 6.73279 274.468 6.63688C274.287 6.37957 273.925 6.37489 273.507 6.37333L273.301 6.37489C272.765 6.38191 272.551 6.37957 272.463 6.36865L272.441 6.47782L272.25 7.37763L271.769 9.37609C272.237 9.36985 272.428 9.36985 272.509 9.37921ZM272.863 7.78465L273.067 6.89185L273.073 6.84585L273.076 6.81076L273.157 6.81934L273.588 6.85677C273.754 6.92148 273.822 7.08913 273.775 7.30745C273.755 7.40261 273.715 7.49214 273.656 7.56956C273.598 7.64697 273.524 7.71032 273.438 7.75502C273.303 7.82364 273.137 7.8291 272.966 7.8291H272.856L272.863 7.78465ZM274.133 8.55659C274.079 8.78895 274.017 9.21235 274.401 9.36362C274.523 9.41586 274.633 9.43223 274.744 9.42599C274.862 9.41976 274.971 9.35972 275.072 9.27395L275.045 9.37999L275.062 9.40338C275.338 9.39091 275.424 9.39091 275.723 9.39325L275.75 9.37219C275.793 9.11332 275.835 8.86147 275.948 8.36478C276.003 8.12696 276.059 7.89226 276.115 7.65522L276.107 7.62948C275.798 7.68718 275.715 7.69966 275.418 7.74177L275.395 7.76048L275.387 7.83066C275.337 7.74793 275.261 7.68472 275.171 7.65132C275.038 7.5983 274.728 7.66613 274.461 7.91175C274.274 8.08641 274.184 8.32657 274.133 8.55659ZM274.781 8.57063C274.847 8.28524 274.924 8.04274 275.12 8.04274C275.244 8.04274 275.31 8.1597 275.296 8.35698C275.286 8.4061 275.275 8.45834 275.261 8.51682C275.242 8.60259 275.22 8.68603 275.199 8.77024C275.182 8.82279 275.157 8.87265 275.127 8.91839C275.076 8.99168 274.955 9.03613 274.887 9.03613C274.867 9.03613 274.745 9.03613 274.741 8.85523C274.744 8.75908 274.757 8.66358 274.782 8.57063H274.781ZM278.168 7.62715L278.144 7.59907C277.838 7.66145 277.783 7.67159 277.502 7.7098L277.482 7.73085L277.478 7.74411L277.478 7.73943C277.269 8.22676 277.275 8.1215 277.104 8.50513L277.103 8.45834L277.06 7.62715L277.033 7.59907C276.713 7.66145 276.705 7.67159 276.41 7.7098L276.387 7.73085C276.384 7.74099 276.384 7.7519 276.382 7.7636L276.384 7.76828C276.421 7.95853 276.412 7.91643 276.449 8.2174C276.466 8.36555 276.489 8.5137 276.506 8.65952C276.536 8.90357 276.553 9.02443 276.587 9.39714C276.388 9.72931 276.34 9.85563 276.148 10.148L276.15 10.1504L276.015 10.3671C275.999 10.3897 275.985 10.4053 275.965 10.4116C275.937 10.4227 275.907 10.4272 275.877 10.4248H275.802L275.691 10.7991L276.073 10.8061C276.296 10.8046 276.438 10.6985 276.514 10.5566L276.755 10.1402H276.751L276.776 10.1106C276.938 9.75972 278.168 7.62715 278.168 7.62715H278.168ZM274.133 12.5457H273.971L274.571 10.5395H274.77L274.833 10.3328L274.84 10.5628C274.832 10.7048 274.942 10.8311 275.233 10.81H275.569L275.684 10.4241H275.558C275.485 10.4241 275.451 10.4053 275.456 10.3656L275.45 10.1317H274.828V10.1332C274.627 10.1371 274.026 10.1527 273.904 10.1855C273.796 10.2194 273.694 10.2702 273.602 10.3359L273.663 10.1293H273.081L272.96 10.5395L272.351 12.5769H272.233L272.117 12.9605H273.277L273.238 13.0884H273.809L273.847 12.9605H274.007L274.133 12.5457ZM273.657 10.9473C273.567 10.9775 273.478 11.0127 273.39 11.0525L273.545 10.5395H274.008L273.896 10.9137C273.896 10.9137 273.753 10.9215 273.657 10.9473H273.657ZM273.666 11.6802C273.666 11.6802 273.521 11.6981 273.425 11.72C273.331 11.7488 273.155 11.8401 273.155 11.8401L273.314 11.3067H273.779L273.666 11.6802ZM273.407 12.5504H272.944L273.078 12.1005H273.54L273.407 12.5504ZM274.524 11.3067H275.193L275.097 11.621H274.419L274.317 11.964H274.911L274.461 12.6034C274.431 12.6502 274.402 12.6666 274.37 12.6798C274.34 12.6954 274.298 12.7149 274.25 12.7149H274.086L273.972 13.0915H274.403C274.627 13.0915 274.758 12.9886 274.856 12.8537L275.164 12.428L275.23 12.86C275.236 12.8916 275.248 12.9215 275.268 12.9471C275.287 12.9727 275.312 12.9933 275.34 13.0073C275.384 13.0292 275.428 13.0666 275.491 13.072C275.558 13.0752 275.607 13.0775 275.639 13.0775H275.85L275.978 12.6564H275.894C275.847 12.6564 275.763 12.6479 275.75 12.633C275.736 12.6143 275.736 12.5863 275.728 12.5426L275.661 12.1091H275.387L275.507 11.9648H276.183L276.287 11.621H275.661L275.759 11.3067H276.384L276.499 10.9184H274.638L274.524 11.3067ZM268.877 12.6385L269.033 12.1137H269.674L269.792 11.7239H269.15L269.248 11.4003H269.875L269.991 11.0229H268.421L268.308 11.4003H268.664L268.569 11.7231H268.211L268.093 12.1208H268.45L268.242 12.8147C268.214 12.906 268.255 12.941 268.281 12.9839C268.308 13.0253 268.335 13.0533 268.396 13.0689C268.45 13.0831 268.505 13.0907 268.56 13.0915H269.283L269.412 12.6588L269.092 12.704C269.03 12.704 268.858 12.6962 268.877 12.6385ZM268.951 10.127L268.789 10.4233C268.767 10.4717 268.734 10.5144 268.694 10.548C268.669 10.5636 268.62 10.5699 268.549 10.5699H268.464L268.35 10.9496H268.632C268.768 10.9496 268.871 10.8989 268.921 10.874C268.975 10.8451 268.988 10.8615 269.029 10.8217L269.125 10.7383H270.005L270.12 10.343H269.478L269.59 10.127H268.951ZM270.249 12.6455C270.234 12.6245 270.245 12.5855 270.268 12.5052L270.508 11.702H271.363C271.488 11.6997 271.578 11.6981 271.637 11.6942C271.699 11.6872 271.768 11.6646 271.842 11.6241C271.903 11.5919 271.955 11.5437 271.992 11.4845C272.058 11.3805 272.108 11.2665 272.139 11.1469L272.441 10.1293L271.554 10.1348C271.554 10.1348 271.281 10.1753 271.161 10.2205C271.039 10.2704 270.866 10.4108 270.866 10.4108L270.946 10.1317H270.398L269.63 12.7032C269.608 12.774 269.592 12.8461 269.58 12.9192C269.579 12.966 269.639 13.0128 269.677 13.0479C269.724 13.083 269.792 13.0775 269.856 13.083C269.926 13.0884 270.022 13.0908 270.157 13.0908H270.579L270.708 12.6502L270.33 12.6861C270.29 12.6861 270.261 12.6642 270.249 12.6455ZM270.663 11.1586H271.561L271.504 11.3395C271.496 11.3434 271.477 11.3301 271.386 11.341H270.608L270.663 11.1586ZM270.843 10.5519H271.748L271.684 10.7703C271.684 10.7703 271.257 10.7656 271.188 10.7781C270.887 10.8311 270.712 10.9933 270.712 10.9933L270.843 10.5519ZM271.525 11.9453C271.517 11.9718 271.505 11.989 271.488 12.0007C271.471 12.0132 271.441 12.0171 271.397 12.0171H271.269L271.277 11.7972H270.745L270.722 12.8732C270.722 12.9512 270.729 12.9964 270.786 13.0323C270.842 13.0775 271.015 13.083 271.248 13.083H271.582L271.702 12.6798L271.412 12.6954L271.316 12.7017C271.302 12.6962 271.289 12.6907 271.275 12.6767C271.263 12.6642 271.243 12.672 271.246 12.5941L271.248 12.318L271.553 12.3056C271.718 12.3056 271.788 12.251 271.847 12.1995C271.905 12.1504 271.924 12.0935 271.945 12.0171L271.996 11.773H271.578L271.524 11.9445L271.525 11.9453Z" fill="#FEFEFE"/><defs><linearGradient id="paint0_linear_4985_5077" x1="87.2715" y1="0.501221" x2="87.2715" y2="18.4988" gradientUnits="userSpaceOnUse"><stop stop-color="#E96418"/><stop offset="1" stop-color="#F9A020"/></linearGradient><linearGradient id="paint1_linear_4985_5077" x1="87.9464" y1="11.3729" x2="86.6508" y2="9.33991" gradientUnits="userSpaceOnUse"><stop stop-color="#FF9200"/><stop offset="0.21" stop-color="#FF8D00"/><stop offset="0.45" stop-color="#FF8000"/><stop offset="0.62" stop-color="#FF7100"/><stop offset="0.82" stop-color="#FF5E00"/><stop offset="1" stop-color="#FF5200"/></linearGradient><linearGradient id="paint2_linear_4985_5077" x1="87.74" y1="11.3471" x2="85.8489" y2="7.63545" gradientUnits="userSpaceOnUse"><stop stop-color="#FF7100" stop-opacity="0"/><stop offset="0.03" stop-color="#FF6E00" stop-opacity="0.03"/><stop offset="0.21" stop-color="#FF5A00" stop-opacity="0.25"/><stop offset="0.39" stop-color="#FF4900" stop-opacity="0.42"/><stop offset="0.56" stop-color="#FF3C00" stop-opacity="0.56"/><stop offset="0.72" stop-color="#FF3300" stop-opacity="0.66"/><stop offset="0.86" stop-color="#FF2D00" stop-opacity="0.72"/><stop offset="0.98" stop-color="#FF2B00" stop-opacity="0.74"/></linearGradient><linearGradient id="paint3_linear_4985_5077" x1="199.476" y1="9.432" x2="203.864" y2="9.432" gradientUnits="userSpaceOnUse"><stop stop-color="#007B40"/><stop offset="1" stop-color="#55B330"/></linearGradient><linearGradient id="paint4_linear_4985_5077" x1="189.634" y1="9.43204" x2="194.022" y2="9.43204" gradientUnits="userSpaceOnUse"><stop stop-color="#1D2970"/><stop offset="1" stop-color="#006DBA"/></linearGradient><linearGradient id="paint5_linear_4985_5077" x1="194.555" y1="9.4323" x2="198.943" y2="9.4323" gradientUnits="userSpaceOnUse"><stop stop-color="#6E2B2F"/><stop offset="1" stop-color="#E30138"/></linearGradient><linearGradient id="paint6_linear_4985_5077" x1="226.737" y1="-1.77786" x2="220.838" y2="17.9969" gradientUnits="userSpaceOnUse"><stop stop-color="#222E72"/><stop offset="0.591647" stop-color="#40CBFF"/><stop offset="1" stop-color="#3CB792"/></linearGradient><clipPath id="clip0_4985_5077"><rect x="73.0234" y="0.501221" width="28.4961" height="17.9975" rx="1.49979" fill="white"/></clipPath><clipPath id="clip1_4985_5077"><rect x="146.016" y="0.501221" width="28.4961" height="17.9975" rx="1.49979" fill="white"/></clipPath></defs></svg>
