<svg width="280" height="280" viewBox="0 0 280 280" fill="none" xmlns="http://www.w3.org/2000/svg">
<path d="M211.68 72.4641V158.648C211.68 160.832 209.888 162.568 207.76 162.568H70.9522C68.7682 162.568 67.0322 160.832 67.0322 158.648V72.4641C67.0322 70.2801 68.7682 68.5441 70.9522 68.5441H207.704C209.888 68.5441 211.624 70.2801 211.68 72.4641Z" fill="white"/>
<path d="M207.704 162.848H70.952C68.6 162.848 66.752 160.944 66.752 158.648V72.464C66.752 70.112 68.656 68.264 70.952 68.264H207.704C210.056 68.264 211.904 70.168 211.904 72.464V158.648C211.96 160.944 210.056 162.848 207.704 162.848ZM70.952 68.824C68.936 68.824 67.312 70.448 67.312 72.464V158.648C67.312 160.664 68.936 162.288 70.952 162.288H207.704C209.72 162.288 211.344 160.664 211.344 158.648V72.464C211.344 70.448 209.72 68.824 207.704 68.824H70.952Z" fill="#111827"/>
<path d="M205.688 74.4241H72.9121V156.688H205.688V74.4241Z" fill="white"/>
<path d="M205.744 156.968H72.9118C72.7438 156.968 72.6318 156.856 72.6318 156.688V74.424C72.6318 74.256 72.7438 74.144 72.9118 74.144H205.744C205.912 74.144 206.024 74.256 206.024 74.424V156.688C206.024 156.856 205.912 156.968 205.744 156.968ZM73.2478 156.408H205.464V74.704H73.2478V156.408Z" fill="#111827"/>
<path d="M70.0003 121.408C69.2723 121.408 68.6562 120.792 68.6562 120.064C68.6562 119.336 69.2723 118.72 70.0003 118.72C70.7283 118.72 71.3443 119.336 71.3443 120.064C71.3443 120.792 70.7283 121.408 70.0003 121.408ZM70.0003 119.336C69.6083 119.336 69.2722 119.672 69.2722 120.064C69.2722 120.456 69.6083 120.792 70.0003 120.792C70.3923 120.792 70.7283 120.456 70.7283 120.064C70.7843 119.672 70.4483 119.336 70.0003 119.336Z" fill="white"/>
<path d="M70.0003 118.216C69.2723 118.216 68.6562 117.6 68.6562 116.872V111.048C68.6562 110.32 69.2723 109.704 70.0003 109.704C70.7283 109.704 71.3443 110.32 71.3443 111.048V116.872C71.3443 117.6 70.7843 118.216 70.0003 118.216ZM70.0003 110.32C69.6083 110.32 69.2722 110.656 69.2722 111.048V116.872C69.2722 117.264 69.6083 117.6 70.0003 117.6C70.3923 117.6 70.7283 117.264 70.7283 116.872V111.048C70.7843 110.6 70.4483 110.264 70.0003 110.32Z" fill="white"/>
<path d="M70.0003 121.408C69.2723 121.408 68.6562 120.792 68.6562 120.064C68.6562 119.336 69.2723 118.72 70.0003 118.72C70.7283 118.72 71.3443 119.336 71.3443 120.064C71.3443 120.792 70.7283 121.408 70.0003 121.408ZM70.0003 119.336C69.6083 119.336 69.2722 119.672 69.2722 120.064C69.2722 120.456 69.6083 120.792 70.0003 120.792C70.3923 120.792 70.7283 120.456 70.7283 120.064C70.7843 119.672 70.4483 119.336 70.0003 119.336Z" fill="#111827"/>
<path d="M70.0003 118.216C69.2723 118.216 68.6562 117.6 68.6562 116.872V111.048C68.6562 110.32 69.2723 109.704 70.0003 109.704C70.7283 109.704 71.3443 110.32 71.3443 111.048V116.872C71.3443 117.6 70.7843 118.216 70.0003 118.216ZM70.0003 110.32C69.6083 110.32 69.2722 110.656 69.2722 111.048V116.872C69.2722 117.264 69.6083 117.6 70.0003 117.6C70.3923 117.6 70.7283 117.264 70.7283 116.872V111.048C70.7843 110.6 70.4483 110.264 70.0003 110.32Z" fill="#111827"/>
<path d="M70.0003 121.408C69.2723 121.408 68.6562 120.792 68.6562 120.064C68.6562 119.336 69.2723 118.72 70.0003 118.72C70.7283 118.72 71.3443 119.336 71.3443 120.064C71.3443 120.792 70.7283 121.408 70.0003 121.408ZM70.0003 119.336C69.6083 119.336 69.2722 119.672 69.2722 120.064C69.2722 120.456 69.6083 120.792 70.0003 120.792C70.3923 120.792 70.7283 120.456 70.7283 120.064C70.7843 119.672 70.4483 119.336 70.0003 119.336Z" stroke="#111827" stroke-linecap="round" stroke-linejoin="round"/>
<path d="M70.0003 118.216C69.2723 118.216 68.6562 117.6 68.6562 116.872V111.048C68.6562 110.32 69.2723 109.704 70.0003 109.704C70.7283 109.704 71.3443 110.32 71.3443 111.048V116.872C71.3443 117.6 70.7843 118.216 70.0003 118.216ZM70.0003 110.32C69.6083 110.32 69.2722 110.656 69.2722 111.048V116.872C69.2722 117.264 69.6083 117.6 70.0003 117.6C70.3923 117.6 70.7283 117.264 70.7283 116.872V111.048C70.7843 110.6 70.4483 110.264 70.0003 110.32Z" stroke="#111827" stroke-linecap="round" stroke-linejoin="round"/>
<path d="M230.944 188.216C235.312 188.328 238.056 190.344 241.864 198.856C245.672 207.368 252.392 224 252.392 224C252.392 224 206.024 235.032 205.744 234.528C205.464 233.968 202.384 199.024 202.384 199.024C202.048 196.56 203.448 194.208 205.8 193.312C209.832 191.688 221.032 187.768 230.944 188.216Z" fill="#F06434"/>
<path d="M230.944 188.216C230.944 188.216 216.048 188.552 205.8 193.312L201.768 173.152C201.768 173.152 196.672 167.048 194.824 162.568H207.76C208.656 162.568 209.552 162.232 210.28 161.672C201.544 149.744 197.456 134.848 200.088 133.448C202.328 132.216 207.256 135.576 211.68 140.056V120.176C217 124.768 226.072 143.584 226.072 149.8C226.072 156.464 223.608 162.736 224.952 169.736C226.24 176.736 230.944 188.216 230.944 188.216Z" fill="white"/>
<path d="M205.744 193.592C205.688 193.592 205.632 193.592 205.632 193.536C205.576 193.48 205.52 193.424 205.464 193.368L201.432 173.264C200.872 172.592 196.28 166.992 194.488 162.624C194.432 162.512 194.488 162.456 194.544 162.344C194.6 162.288 194.712 162.232 194.768 162.232H207.704C208.488 162.232 209.216 162.008 209.832 161.56C206.304 156.688 203.448 151.312 201.32 145.712C199.472 140.728 198.632 136.528 199.08 134.456C199.136 133.952 199.416 133.448 199.864 133.168C202.384 131.824 207.312 135.408 211.344 139.328V120.12C211.344 120.008 211.4 119.896 211.512 119.84C211.624 119.784 211.736 119.784 211.792 119.896C217.056 124.432 226.24 143.416 226.24 149.744C226.184 152.32 225.904 154.952 225.456 157.528C224.896 161.392 224.28 165.424 225.12 169.624C226.464 176.512 231.112 187.936 231.112 188.048C231.168 188.104 231.168 188.216 231.112 188.328C231.056 188.384 230.944 188.44 230.888 188.44C230.72 188.44 215.936 188.832 205.856 193.536C205.856 193.592 205.8 193.592 205.744 193.592ZM195.216 162.848C197.12 167.272 201.88 172.928 201.936 172.984C201.992 173.04 201.992 173.04 201.992 173.096L205.968 192.864C215.208 188.664 228.032 187.992 230.496 187.88C229.656 185.808 225.792 175.952 224.616 169.736C223.776 165.424 224.392 161.392 224.952 157.416C225.4 154.896 225.624 152.32 225.68 149.744C225.68 143.696 217.168 125.944 211.904 120.792V140C211.904 140.112 211.848 140.224 211.736 140.28C211.624 140.336 211.512 140.28 211.4 140.224C206.528 135.296 201.992 132.608 200.144 133.672C199.864 133.896 199.64 134.232 199.64 134.568C198.8 138.264 202.664 150.864 210.448 161.448C210.56 161.56 210.504 161.728 210.392 161.84C209.664 162.456 208.712 162.792 207.704 162.792L195.216 162.848Z" fill="#111827"/>
<path d="M217.28 145.992C217.224 145.992 217.112 145.936 217.056 145.88C214.088 142.688 211.456 140.28 211.456 140.28C211.344 140.168 211.344 140 211.456 139.888C211.568 139.776 211.736 139.776 211.848 139.888C211.848 139.888 214.48 142.352 217.504 145.544C217.616 145.656 217.616 145.824 217.504 145.936C217.448 145.936 217.336 145.992 217.28 145.992Z" fill="#111827"/>
<path d="M212.296 164.976C212.184 164.976 212.128 164.92 212.072 164.864L210 161.84C209.888 161.728 209.944 161.504 210.056 161.448C210.168 161.336 210.392 161.392 210.448 161.504L212.52 164.584C212.632 164.696 212.576 164.864 212.464 164.976C212.408 164.976 212.352 164.976 212.296 164.976Z" fill="#111827"/>
<path d="M47.712 188.216C43.344 188.328 40.6 190.344 36.792 198.856C32.984 207.368 26.208 224 26.208 224C26.208 224 72.576 235.032 72.856 234.528C73.136 233.968 76.272 199.024 76.272 199.024C76.608 196.56 75.208 194.208 72.856 193.312C68.824 191.688 57.624 187.768 47.712 188.216Z" fill="#F06434"/>
<path d="M47.7119 188.216C47.7119 188.216 62.6079 188.552 72.8559 193.312L76.8879 173.152C76.8879 173.152 81.9839 167.104 83.8319 162.568H70.8959C69.9999 162.568 69.1039 162.232 68.3759 161.672C77.1119 149.744 81.1999 134.848 78.5679 133.448C76.3279 132.216 71.3999 135.576 66.9759 140.056V120.176C61.6559 124.768 52.5839 143.584 52.5839 149.8C52.5839 156.464 55.0479 162.736 53.7039 169.736C52.3599 176.736 47.7119 188.216 47.7119 188.216Z" fill="white"/>
<path d="M72.856 193.592C72.8 193.592 72.8 193.592 72.744 193.536C62.608 188.832 47.824 188.44 47.656 188.44C47.544 188.44 47.488 188.384 47.432 188.328C47.376 188.272 47.376 188.16 47.376 188.048C47.432 187.936 52.08 176.568 53.424 169.624C54.208 165.424 53.648 161.392 53.088 157.528C52.64 154.952 52.416 152.376 52.304 149.744C52.304 143.416 61.488 124.432 66.752 119.896C66.864 119.84 66.976 119.784 67.088 119.84C67.2 119.896 67.256 120.008 67.256 120.12V139.328C71.232 135.352 76.216 131.824 78.736 133.168C79.184 133.448 79.464 133.952 79.52 134.456C79.968 136.528 79.184 140.728 77.28 145.712C75.152 151.368 72.296 156.688 68.768 161.56C69.384 162.008 70.112 162.232 70.896 162.232H83.832C83.944 162.232 84 162.288 84.056 162.344C84.112 162.4 84.112 162.512 84.112 162.624C82.32 166.992 77.728 172.592 77.168 173.264L73.136 193.368C73.136 193.48 73.08 193.536 72.968 193.536C72.968 193.592 72.912 193.592 72.856 193.592ZM48.104 187.936C50.568 188.048 63.392 188.72 72.632 192.92L76.608 173.152C76.608 173.096 76.664 173.04 76.664 173.04C76.72 172.984 81.48 167.272 83.384 162.904H70.84C69.832 162.904 68.88 162.568 68.152 161.952C68.04 161.84 68.04 161.672 68.096 161.56C75.824 150.976 79.744 138.32 78.904 134.68C78.848 134.344 78.68 134.008 78.4 133.784C76.496 132.776 71.96 135.408 67.144 140.336C67.032 140.448 66.864 140.448 66.752 140.336C66.696 140.28 66.64 140.224 66.64 140.112V120.904C61.376 126.056 52.864 143.808 52.864 149.856C52.92 152.432 53.2 155.008 53.592 157.528C54.152 161.448 54.768 165.536 53.928 169.848C52.808 176.008 48.944 185.864 48.104 187.936Z" fill="#111827"/>
<path d="M61.3762 145.992C61.2082 145.992 61.0962 145.88 61.0962 145.712C61.0962 145.656 61.0962 145.544 61.2082 145.488C64.1762 142.296 66.8082 139.888 66.8642 139.832C66.9762 139.72 67.1442 139.72 67.2562 139.832C67.3682 139.944 67.3682 140.112 67.2562 140.224C67.2002 140.224 64.6242 142.632 61.6562 145.824C61.4882 145.936 61.4322 145.992 61.3762 145.992Z" fill="#111827"/>
<path d="M66.3041 164.976C66.2481 164.976 66.1921 164.976 66.1361 164.92C66.0241 164.808 65.9681 164.64 66.0801 164.528L68.1521 161.448C68.2641 161.336 68.4321 161.28 68.5441 161.392C68.6561 161.504 68.7121 161.672 68.6001 161.784L66.4721 164.864C66.4721 164.976 66.3601 164.976 66.3041 164.976Z" fill="#111827"/>
<path d="M105.056 156.968C104.888 156.968 104.776 156.856 104.776 156.688V74.424C104.776 74.256 104.888 74.144 105.056 74.144C105.224 74.144 105.336 74.256 105.336 74.424V156.688C105.392 156.856 105.224 156.968 105.056 156.968Z" fill="#111827"/>
<path d="M99.3998 79.3521H78.7358V85.4561H99.3998V79.3521Z" fill="#F06434"/>
<path d="M99.3439 85.68H78.6799C78.5119 85.68 78.3999 85.568 78.3999 85.4V79.296C78.3999 79.128 78.5119 79.016 78.6799 79.016H99.3439C99.5119 79.016 99.6239 79.128 99.6239 79.296V85.4C99.6239 85.568 99.5119 85.68 99.3439 85.68ZM79.0159 85.12H99.0639V79.632H79.0159V85.12Z" fill="#111827"/>
<path d="M80.752 83.1041L83.16 80.6961C83.328 80.5281 83.664 80.5281 83.832 80.6961C84 80.8641 84 81.2001 83.832 81.3681L81.424 83.7761L80.752 83.1041Z" fill="white"/>
<path d="M81.4237 84.0561C81.3677 84.0561 81.2557 84.0561 81.1997 84.0001L80.5277 83.3281C80.4717 83.2721 80.4717 83.2161 80.4717 83.1041C80.4717 83.0481 80.5277 82.9361 80.5277 82.8801L82.9357 80.4721C83.2157 80.1921 83.7197 80.1921 84.0557 80.4721C84.3917 80.7521 84.3357 81.2561 84.0557 81.5921L81.6477 84.0001C81.5917 84.0001 81.4797 84.0561 81.4237 84.0561ZM81.1437 83.1041L81.4237 83.3841L83.6077 81.2001C83.6637 81.1441 83.6637 80.9761 83.6077 80.9201C83.5517 80.8641 83.3837 80.8641 83.3277 80.9201L81.1437 83.1041Z" fill="#111827"/>
<path d="M81.4239 83.776L80.7519 83.104L80.3599 84.112L81.4239 83.776Z" fill="#111827"/>
<path d="M80.3598 84.4481C80.3038 84.4481 80.1918 84.3921 80.1358 84.3361C80.0798 84.2801 80.0238 84.1681 80.0798 84.0561L80.4718 82.9921C80.5278 82.8801 80.5838 82.8241 80.6958 82.8241C80.8078 82.8241 80.8638 82.8241 80.9758 82.8801L81.6478 83.5521C81.7598 83.6641 81.7598 83.8321 81.6478 83.9441C81.5918 84.0001 81.5918 84.0001 81.5358 84.0001L80.4718 84.3921C80.4158 84.4481 80.4158 84.4481 80.3598 84.4481ZM80.8638 83.6081V83.6641H80.9198L80.8638 83.6081Z" fill="#111827"/>
<path d="M99.3439 96.7121H78.6799C78.5119 96.7121 78.3999 96.6001 78.3999 96.4321V91.2241C78.3999 91.0561 78.5119 90.9441 78.6799 90.9441H99.3439C99.5119 90.9441 99.6239 91.0561 99.6239 91.2241V96.4321C99.6799 96.5441 99.5119 96.7121 99.3439 96.7121ZM79.0159 96.1521H99.0639V91.5041H79.0159V96.1521Z" fill="#111827"/>
<path d="M99.3439 105.112H78.6799C78.5119 105.112 78.3999 105 78.3999 104.832V99.624C78.3999 99.456 78.5119 99.344 78.6799 99.344H99.3439C99.5119 99.344 99.6239 99.456 99.6239 99.624V104.832C99.6799 105 99.5119 105.112 99.3439 105.112ZM79.0159 104.552H99.0639V99.904H79.0159V104.552Z" fill="#111827"/>
<path d="M99.3439 113.512H78.6799C78.5119 113.512 78.3999 113.4 78.3999 113.232V108.024C78.3999 107.856 78.5119 107.744 78.6799 107.744H99.3439C99.5119 107.744 99.6239 107.856 99.6239 108.024V113.232C99.6799 113.4 99.5119 113.512 99.3439 113.512ZM79.0159 112.952H99.0639V108.304H79.0159V112.952Z" fill="#111827"/>
<path d="M99.3439 121.912H78.6799C78.5119 121.912 78.3999 121.8 78.3999 121.632V116.424C78.3999 116.256 78.5119 116.144 78.6799 116.144H99.3439C99.5119 116.144 99.6239 116.256 99.6239 116.424V121.632C99.6239 121.8 99.5119 121.912 99.3439 121.912ZM79.0159 121.352H99.0639V116.704H79.0159V121.352Z" fill="#111827"/>
<path d="M134.176 91.5041H118.496C118.328 91.5041 118.216 91.3921 118.216 91.2241C118.216 91.0561 118.328 90.9441 118.496 90.9441H134.176C134.344 90.9441 134.456 91.0561 134.456 91.2241C134.512 91.3361 134.344 91.5041 134.176 91.5041Z" fill="#111827"/>
<path d="M192.92 91.5041H140.392C140.224 91.5041 140.112 91.3921 140.112 91.2241C140.112 91.0561 140.224 90.9441 140.392 90.9441H192.92C193.088 90.9441 193.2 91.0561 193.2 91.2241C193.2 91.3921 193.088 91.5041 192.92 91.5041Z" fill="#111827"/>
<path d="M192.92 94.9201H140.392C140.224 94.9201 140.112 94.8081 140.112 94.6401C140.112 94.4721 140.224 94.3601 140.392 94.3601H192.92C193.088 94.3601 193.2 94.4721 193.2 94.6401C193.2 94.8081 193.088 94.9201 192.92 94.9201Z" fill="#111827"/>
<path d="M134.176 100.8H118.496C118.328 100.8 118.216 100.688 118.216 100.52C118.216 100.352 118.328 100.24 118.496 100.24H134.176C134.344 100.24 134.456 100.352 134.456 100.52C134.456 100.688 134.344 100.8 134.176 100.8Z" fill="#111827"/>
<path d="M192.92 100.8H140.392C140.224 100.8 140.112 100.688 140.112 100.52C140.112 100.352 140.224 100.24 140.392 100.24H192.92C193.088 100.24 193.2 100.352 193.2 100.52C193.2 100.632 193.088 100.8 192.92 100.8Z" fill="#111827"/>
<path d="M192.92 104.216H140.392C140.224 104.216 140.112 104.104 140.112 103.936C140.112 103.768 140.224 103.656 140.392 103.656H192.92C193.088 103.656 193.2 103.768 193.2 103.936C193.2 104.104 193.088 104.216 192.92 104.216Z" fill="#111827"/>
<path d="M134.176 110.096H118.496C118.328 110.096 118.216 109.984 118.216 109.816C118.216 109.648 118.328 109.536 118.496 109.536H134.176C134.344 109.536 134.456 109.648 134.456 109.816C134.456 109.984 134.344 110.096 134.176 110.096Z" fill="#111827"/>
<path d="M192.92 110.096H140.392C140.224 110.096 140.112 109.984 140.112 109.816C140.112 109.648 140.224 109.536 140.392 109.536H192.92C193.088 109.536 193.2 109.648 193.2 109.816C193.2 109.928 193.088 110.096 192.92 110.096Z" fill="#111827"/>
<path d="M192.92 113.512H140.392C140.224 113.512 140.112 113.4 140.112 113.232C140.112 113.064 140.224 112.952 140.392 112.952H192.92C193.088 112.952 193.2 113.064 193.2 113.232C193.2 113.4 193.088 113.512 192.92 113.512Z" fill="#111827"/>
<path d="M134.176 119.336H118.496C118.328 119.336 118.216 119.224 118.216 119.056C118.216 118.888 118.328 118.776 118.496 118.776H134.176C134.344 118.776 134.456 118.888 134.456 119.056C134.512 119.224 134.344 119.336 134.176 119.336Z" fill="#111827"/>
<path d="M192.92 119.336H140.392C140.224 119.336 140.112 119.224 140.112 119.056C140.112 118.888 140.224 118.776 140.392 118.776H192.92C193.088 118.776 193.2 118.888 193.2 119.056C193.2 119.224 193.088 119.336 192.92 119.336Z" fill="#111827"/>
<path d="M192.92 122.808H140.392C140.224 122.808 140.112 122.696 140.112 122.528C140.112 122.36 140.224 122.248 140.392 122.248H192.92C193.088 122.248 193.2 122.36 193.2 122.528C193.2 122.696 193.088 122.808 192.92 122.808Z" fill="#111827"/>
<path d="M134.176 128.632H118.496C118.328 128.632 118.216 128.52 118.216 128.352C118.216 128.184 118.328 128.072 118.496 128.072H134.176C134.344 128.072 134.456 128.184 134.456 128.352C134.512 128.52 134.344 128.632 134.176 128.632Z" fill="#111827"/>
<path d="M192.92 128.632H140.392C140.224 128.632 140.112 128.52 140.112 128.352C140.112 128.184 140.224 128.072 140.392 128.072H192.92C193.088 128.072 193.2 128.184 193.2 128.352C193.2 128.52 193.088 128.632 192.92 128.632Z" fill="#111827"/>
<path d="M192.92 132.104H140.392C140.224 132.104 140.112 131.992 140.112 131.824C140.112 131.656 140.224 131.544 140.392 131.544H192.92C193.088 131.544 193.2 131.656 193.2 131.824C193.2 131.992 193.088 132.104 192.92 132.104Z" fill="#111827"/>
<path d="M134.176 85.68H119.28C119.112 85.68 119 85.568 119 85.4V79.296C119 79.128 119.112 79.016 119.28 79.016H134.232C134.4 79.016 134.512 79.128 134.512 79.296V85.4C134.456 85.568 134.344 85.68 134.176 85.68ZM119.504 85.12H133.896V79.632H119.504V85.12Z" fill="#111827"/>
<path d="M192.92 85.68H140.392C140.224 85.68 140.112 85.568 140.112 85.4V79.296C140.112 79.128 140.224 79.016 140.392 79.016H192.92C193.088 79.016 193.2 79.128 193.2 79.296V85.4C193.2 85.568 193.088 85.68 192.92 85.68ZM140.672 85.12H192.64V79.632H140.672V85.12Z" fill="#111827"/>
<path d="M232.512 43.4H177.968V88.256H232.512V43.4Z" fill="white"/>
<path d="M232.456 88.536H177.968C177.8 88.536 177.688 88.424 177.688 88.256V43.4C177.688 43.232 177.8 43.12 177.968 43.12H232.456C232.624 43.12 232.736 43.232 232.736 43.4V88.256C232.736 88.424 232.624 88.536 232.456 88.536ZM178.192 87.976H232.12V43.68H178.192V87.976Z" fill="#111827"/>
<path d="M221.592 61.376H188.048V83.664H221.592V61.376Z" fill="white"/>
<path d="M221.592 83.9439H188.048C187.88 83.9439 187.768 83.8319 187.768 83.6639V61.3759C187.768 61.2079 187.88 61.0959 188.048 61.0959H221.592C221.76 61.0959 221.872 61.2079 221.872 61.3759V83.6639C221.872 83.7759 221.76 83.9439 221.592 83.9439ZM188.328 83.3279H221.312V61.5999H188.328V83.3279Z" fill="#111827"/>
<path d="M221.592 61.3759L217.392 64.1759L204.792 72.5199L192.248 64.1759L188.048 61.3759L192.248 57.7919L202.608 48.9999L204.792 47.0959L207.032 48.9999L217.392 57.7919L221.592 61.3759Z" fill="white"/>
<path d="M204.792 72.8C204.736 72.8 204.68 72.8 204.624 72.744L187.88 61.6C187.824 61.544 187.768 61.488 187.768 61.376C187.768 61.264 187.824 61.208 187.88 61.152L204.624 46.928C204.736 46.816 204.904 46.816 205.016 46.928L221.76 61.152C221.816 61.208 221.872 61.32 221.872 61.376C221.872 61.488 221.816 61.544 221.76 61.6L204.96 72.744C204.904 72.8 204.848 72.8 204.792 72.8ZM188.496 61.32L204.792 72.128L221.088 61.32L204.792 47.488L188.496 61.32Z" fill="#111827"/>
<path d="M188.048 83.944C187.992 83.944 187.936 83.944 187.88 83.888C187.768 83.776 187.712 83.608 187.824 83.496L199.416 68.936C199.528 68.824 199.696 68.768 199.808 68.88C199.92 68.992 199.976 69.16 199.864 69.272L188.272 83.832C188.216 83.888 188.16 83.944 188.048 83.944Z" fill="#111827"/>
<path d="M221.592 83.944C221.48 83.944 221.424 83.888 221.368 83.832L209.776 69.272C209.664 69.16 209.664 68.992 209.776 68.88C209.888 68.768 210.056 68.768 210.168 68.88L210.224 68.936L221.816 83.496C221.928 83.608 221.872 83.776 221.76 83.888C221.704 83.888 221.648 83.944 221.592 83.944Z" fill="#111827"/>
<path d="M217.392 49V64.176L204.792 72.52L192.248 64.176V49H217.392Z" fill="#F06434"/>
<path d="M204.792 72.8C204.736 72.8 204.68 72.8 204.624 72.744L192.08 64.4C192.024 64.344 191.968 64.232 191.968 64.176V49C191.968 48.832 192.08 48.72 192.248 48.72H217.336C217.504 48.72 217.616 48.832 217.616 49V64.176C217.616 64.288 217.56 64.344 217.504 64.4L204.96 72.744C204.904 72.8 204.848 72.8 204.792 72.8ZM192.528 64.008L204.792 72.128L217.056 64.008V49.28H192.528V64.008Z" fill="#111827"/>
<path d="M202.44 53.648H195.216C195.048 53.648 194.936 53.536 194.936 53.368C194.936 53.2 195.048 53.088 195.216 53.088H202.44C202.608 53.088 202.72 53.2 202.72 53.368C202.72 53.536 202.608 53.648 202.44 53.648Z" fill="#111827"/>
<path d="M213.304 56.28H195.216C195.048 56.28 194.936 56.168 194.936 56C194.936 55.832 195.048 55.72 195.216 55.72H213.304C213.472 55.72 213.584 55.832 213.584 56C213.584 56.112 213.416 56.28 213.304 56.28Z" fill="#111827"/>
<path d="M213.304 58.856H195.216C195.048 58.856 194.936 58.744 194.936 58.576C194.936 58.408 195.048 58.296 195.216 58.296H213.304C213.472 58.296 213.584 58.408 213.584 58.576C213.584 58.744 213.416 58.856 213.304 58.856Z" fill="#111827"/>
<path d="M213.304 61.488H195.216C195.048 61.488 194.936 61.376 194.936 61.208C194.936 61.04 195.048 60.928 195.216 60.928H213.304C213.472 60.928 213.584 61.04 213.584 61.208C213.584 61.376 213.416 61.488 213.304 61.488Z" fill="#111827"/>
<path d="M213.304 64.1199H195.216C195.048 64.1199 194.936 64.0079 194.936 63.8399C194.936 63.6719 195.048 63.5599 195.216 63.5599H213.304C213.472 63.5599 213.584 63.6719 213.584 63.8399C213.584 63.9519 213.416 64.1199 213.304 64.1199Z" fill="#111827"/>
<path d="M177.968 48.608C180.844 48.608 183.176 46.2763 183.176 43.4C183.176 40.5237 180.844 38.192 177.968 38.192C175.091 38.192 172.76 40.5237 172.76 43.4C172.76 46.2763 175.091 48.608 177.968 48.608Z" fill="#F06434"/>
<path d="M177.968 48.888C174.944 48.888 172.48 46.424 172.48 43.4C172.48 40.376 174.944 37.912 177.968 37.912C180.992 37.912 183.456 40.376 183.456 43.4C183.4 46.424 180.992 48.888 177.968 48.888ZM177.968 38.472C175.28 38.472 173.04 40.656 173.04 43.4C173.04 46.088 175.224 48.328 177.968 48.328C180.656 48.328 182.896 46.144 182.896 43.4C182.84 40.656 180.656 38.472 177.968 38.472Z" fill="#111827"/>
<path d="M177.968 46.592C177.8 46.592 177.688 46.48 177.688 46.312V40.488C177.688 40.32 177.8 40.208 177.968 40.208C178.136 40.208 178.248 40.32 178.248 40.488V46.312C178.248 46.424 178.08 46.592 177.968 46.592Z" fill="#111827"/>
<path d="M180.824 43.68H175C174.832 43.68 174.72 43.568 174.72 43.4C174.72 43.232 174.832 43.12 175 43.12H180.824C180.992 43.12 181.104 43.232 181.104 43.4C181.16 43.568 180.992 43.68 180.824 43.68Z" fill="#111827"/>
<path d="M175.896 45.696C175.84 45.696 175.728 45.64 175.672 45.584C175.56 45.472 175.56 45.304 175.672 45.192L179.76 41.104C179.872 40.992 180.04 40.992 180.152 41.104C180.264 41.216 180.264 41.384 180.152 41.496L176.064 45.584C176.064 45.696 175.952 45.696 175.896 45.696Z" fill="#111827"/>
<path d="M179.984 45.696C179.928 45.696 179.816 45.64 179.76 45.584L175.672 41.496C175.56 41.384 175.56 41.216 175.672 41.104C175.784 40.992 175.952 40.992 176.064 41.104L180.152 45.192C180.264 45.304 180.264 45.472 180.152 45.584C180.152 45.696 180.096 45.696 179.984 45.696Z" fill="#111827"/>
<path d="M221.592 76.9439C224.035 76.9439 226.016 74.9633 226.016 72.5199C226.016 70.0766 224.035 68.0959 221.592 68.0959C219.149 68.0959 217.168 70.0766 217.168 72.5199C217.168 74.9633 219.149 76.9439 221.592 76.9439Z" fill="#F06434"/>
<path d="M221.592 77.224C218.96 77.224 216.888 75.096 216.888 72.52C216.888 69.888 219.016 67.816 221.592 67.816C224.224 67.816 226.296 69.944 226.296 72.52C226.296 75.096 224.168 77.224 221.592 77.224ZM221.592 68.376C219.296 68.376 217.448 70.224 217.448 72.52C217.448 74.816 219.296 76.664 221.592 76.664C223.888 76.664 225.736 74.816 225.736 72.52C225.736 70.224 223.888 68.376 221.592 68.376Z" fill="#111827"/>
<path d="M221.424 70.8959L220.696 71.2879L220.584 70.8399L221.536 70.3359H222.04V74.6479H221.48L221.424 70.8959Z" fill="white"/>
</svg>
