<svg width="29" height="19" viewBox="0 0 29 19" fill="none" xmlns="http://www.w3.org/2000/svg">
<g clip-path="url(#clip0_6688_7313)">
<rect x="0.015625" y="0.500977" width="28.4961" height="17.9975" rx="1.49979" fill="white"/>
<path d="M24.9393 4.92544L25.5148 3.3607L28.0159 3.34869V0.500977L-0.480225 0.512985V18.4985L28.0159 18.4865V15.6448L25.6647 15.6568L24.7475 14.5837L23.7942 15.6568H16.7439V9.94341H14.4178L17.3255 3.3607H20.1551L20.8386 4.8535V3.3607H24.3518L24.9393 4.92544ZM22.9549 5.96261L22.9489 5.3331L23.1887 5.96261L24.3578 9.08608H25.5208L26.6959 5.96261L26.9237 5.33911V9.08608L28.0159 9.07407V4.27794L26.1144 4.28995L25.1911 6.72401L24.9453 7.38346L24.6935 6.72401L23.7643 4.28995H21.7319V9.08608H22.9549V5.96261ZM20.323 9.08608H21.7319L19.6216 4.28995H17.9849L15.8626 9.08608H17.2535L17.6252 8.16284H19.9513L20.323 9.08608ZM18.5485 5.91466L18.7882 5.31512L19.0281 5.91466L19.5257 7.12565H18.0508L18.5485 5.91466ZM17.7271 9.94937V14.7276H21.7319V13.6904H18.9501V12.8571H21.678V11.8259H18.9501V10.9866H21.7319V9.94937H17.7271ZM26.1863 14.7276H27.775L25.5328 12.3295L27.775 9.94937H26.2103L24.7654 11.5021L23.3266 9.94937H21.7319L23.9681 12.3475L21.7319 14.7276H23.2787L24.7355 13.1688L26.1863 14.7276ZM26.7918 12.3235L28.0159 13.6904V10.9506L26.7918 12.3235Z" fill="#006FCF"/>
</g>
<rect x="0.390574" y="0.875925" width="27.7462" height="17.2476" rx="1.12485" stroke="black" stroke-opacity="0.1" stroke-width="0.749897"/>
<defs>
<clipPath id="clip0_6688_7313">
<rect x="0.015625" y="0.500977" width="28.4961" height="17.9975" rx="1.49979" fill="white"/>
</clipPath>
</defs>
</svg>
