<svg width="30" height="19" viewBox="0 0 30 19" fill="none" xmlns="http://www.w3.org/2000/svg">
<rect x="0.519531" y="0.500977" width="28.4961" height="17.9975" rx="1.49979" fill="white"/>
<rect x="0.89448" y="0.875925" width="27.7462" height="17.2476" rx="1.12485" stroke="black" stroke-opacity="0.1" stroke-width="0.749897"/>
<path d="M17.0536 9.49026C17.0511 8.00678 16.1496 6.7422 14.8792 6.2411V12.7394C16.1496 12.2375 17.0511 10.9741 17.0536 9.49026ZM12.4555 12.7378V6.2415C11.1863 6.74447 10.286 8.00759 10.2828 9.49026C10.286 10.9726 11.1863 12.2361 12.4555 12.7378ZM13.668 3.99787C10.7182 3.99892 8.32828 6.45695 8.32802 9.49026C8.32828 12.5232 10.7182 14.9808 13.668 14.9812C16.6177 14.9808 19.0084 12.5232 19.009 9.49026C19.0084 6.45695 16.6177 3.99892 13.668 3.99787ZM13.6548 15.4999C10.4269 15.5154 7.77026 12.8266 7.77026 9.55291C7.77026 5.97558 10.4269 3.501 13.6548 3.50165H15.1679C18.3572 3.501 21.2684 5.97398 21.2684 9.55291C21.2684 12.825 18.3572 15.4999 15.1679 15.4999H13.6548Z" fill="#254D98"/>
</svg>
