<svg width="29" height="19" viewBox="0 0 29 19" fill="none" xmlns="http://www.w3.org/2000/svg">
<g clip-path="url(#clip0_6688_7292)">
<rect x="0.0234375" y="0.500977" width="28.4961" height="17.9975" rx="1.49979" fill="white"/>
<rect x="0.0234375" y="0.500977" width="28.4961" height="17.9975" fill="url(#paint0_linear_6688_7292)"/>
<path d="M0.023448 1.14089V17.8586C0.023448 18.0283 0.0234375 18.4985 0.0234375 18.4985C0.0234375 18.4985 0.486862 18.4985 0.654129 18.4985H18.1492C20.5013 18.4985 22.757 17.5507 24.4205 15.8635C26.084 14.1763 27.0189 11.8878 27.0197 9.50135C27.0197 8.3194 26.7903 7.14903 26.3445 6.05706C25.8987 4.96508 25.2453 3.97289 24.4216 3.13713C23.5979 2.30137 22.62 1.6384 21.5438 1.18609C20.4676 0.733783 19.3141 0.500982 18.1492 0.500982H0.654129C0.486862 0.500982 0.0234434 0.500977 0.0234434 0.500977C0.0234434 0.500977 0.023448 0.971179 0.023448 1.14089Z" fill="white"/>
<path d="M3.2906 8.10645H2.27271V11.6444H3.2734C3.73211 11.6698 4.18389 11.5242 4.54075 11.2358C4.74305 11.0712 4.90651 10.8643 5.01949 10.6297C5.13248 10.3951 5.19223 10.1385 5.19449 9.87831C5.19449 8.83519 4.42032 8.10645 3.2906 8.10645ZM4.09918 10.7642C3.83258 10.9797 3.4918 11.0823 3.1501 11.05H2.96659V8.70659H3.1501C3.31939 8.6895 3.4904 8.70595 3.65328 8.755C3.81616 8.80405 3.96771 8.88472 4.09918 8.99238C4.2204 9.10496 4.31708 9.2412 4.38318 9.39264C4.44928 9.54407 4.4834 9.70745 4.4834 9.87259C4.48411 10.0395 4.45037 10.2048 4.38428 10.3582C4.31818 10.5116 4.22114 10.6498 4.09918 10.7642Z" fill="#261F20"/>
<path d="M6.2064 8.10645H5.51538V11.6445H6.2064V8.10645Z" fill="#261F20"/>
<path d="M7.89832 9.46335C7.48256 9.31189 7.36213 9.209 7.36213 9.02039C7.36213 8.83177 7.58005 8.62601 7.87825 8.62601C7.98673 8.62799 8.09332 8.65479 8.18976 8.70434C8.28621 8.75389 8.36995 8.82487 8.4345 8.91179L8.79865 8.43739C8.51147 8.18244 8.13952 8.04291 7.75495 8.04586C7.61482 8.03737 7.47442 8.05714 7.34214 8.10399C7.20985 8.15084 7.08841 8.22381 6.98508 8.31853C6.88175 8.41324 6.79866 8.52777 6.74077 8.65524C6.68288 8.78271 6.65138 8.92051 6.64817 9.0604C6.64817 9.54623 6.87182 9.79772 7.5227 10.0292C7.68775 10.0809 7.8472 10.1488 7.99867 10.2321C8.06297 10.2691 8.11625 10.3225 8.15303 10.3868C8.18981 10.451 8.20878 10.5239 8.20799 10.5979C8.20736 10.6665 8.19269 10.7342 8.16486 10.7969C8.13702 10.8596 8.09663 10.9159 8.04614 10.9625C7.99566 11.0091 7.93616 11.0449 7.87129 11.0677C7.80642 11.0905 7.73756 11.0999 7.66893 11.0952C7.51088 11.098 7.35542 11.0549 7.22151 10.9712C7.0876 10.8875 6.98104 10.7667 6.91483 10.6236L6.46753 11.0523C6.59273 11.264 6.77268 11.4382 6.98856 11.5569C7.20444 11.6755 7.44833 11.7342 7.69474 11.7268C7.8532 11.7375 8.01216 11.7153 8.16156 11.6615C8.31095 11.6078 8.44753 11.5238 8.56263 11.4147C8.67773 11.3056 8.76884 11.1739 8.8302 11.0279C8.89156 10.8819 8.92183 10.7248 8.91908 10.5665C8.91908 10.0063 8.68683 9.75199 7.89832 9.46335Z" fill="#261F20"/>
<path d="M9.13973 9.87729C9.13737 10.1223 9.18443 10.3653 9.27812 10.5919C9.37181 10.8184 9.51023 11.0239 9.68514 11.1961C9.86005 11.3683 10.0679 11.5037 10.2963 11.5943C10.5248 11.6849 10.7692 11.7288 11.015 11.7235C11.3148 11.7195 11.6095 11.6451 11.8751 11.5063V10.7061C11.7714 10.8263 11.643 10.923 11.4985 10.9895C11.3541 11.0561 11.197 11.091 11.0379 11.0919C10.8767 11.0987 10.7159 11.0715 10.566 11.0122C10.4161 10.9528 10.2804 10.8626 10.1678 10.7475C10.0552 10.6323 9.96832 10.4948 9.91271 10.3438C9.8571 10.1929 9.83406 10.032 9.84509 9.87157C9.83894 9.71411 9.86458 9.55701 9.92047 9.40959C9.97636 9.26218 10.0614 9.12745 10.1705 9.01338C10.2796 8.89932 10.4105 8.80824 10.5556 8.74555C10.7006 8.68286 10.8569 8.64983 11.015 8.64842C11.1787 8.65005 11.3402 8.6866 11.4885 8.75561C11.6369 8.82462 11.7687 8.92449 11.8751 9.04852V8.24546C11.6119 8.10017 11.3158 8.02442 11.015 8.02541C10.7698 8.02428 10.5269 8.07129 10.3 8.16374C10.0731 8.2562 9.86666 8.39229 9.69253 8.56426C9.5184 8.73622 9.37996 8.94068 9.28511 9.16597C9.19026 9.39127 9.14086 9.63297 9.13973 9.87729Z" fill="#261F20"/>
<path d="M17.3692 10.4842L16.423 8.10645H15.666L17.1742 11.7359H17.547L19.0781 8.10645H18.3297L17.3692 10.4842Z" fill="#261F20"/>
<path d="M19.3936 11.6445H21.3548V11.0472H20.0846V10.0926H21.3089V9.4925H20.0846V8.70659H21.3548V8.10645H19.3936V11.6445Z" fill="#261F20"/>
<path d="M24.0985 9.15241C24.0985 8.4894 23.6397 8.10645 22.8397 8.10645H21.8132V11.6445H22.5043V10.2155H22.596L23.5537 11.6445H24.4139L23.2956 10.1555C23.5317 10.1201 23.7457 9.99707 23.8946 9.81103C24.0435 9.625 24.1163 9.38973 24.0985 9.15241ZM22.7078 9.72398H22.5043V8.66372H22.7193C23.1494 8.66372 23.3845 8.84377 23.3845 9.18957C23.3845 9.53536 23.1494 9.73541 22.7078 9.73541V9.72398Z" fill="#261F20"/>
<path d="M24.649 8.29145C24.649 8.23151 24.6061 8.19727 24.5316 8.19727H24.4314V8.50835H24.5058V8.38848L24.5917 8.50835H24.6834L24.5803 8.37992C24.6005 8.37584 24.6185 8.36466 24.6312 8.34842C24.6438 8.33218 24.6501 8.31196 24.649 8.29145ZM24.5173 8.33426V8.25435C24.5545 8.25435 24.5746 8.25434 24.5746 8.2943C24.5746 8.33426 24.5545 8.33426 24.5173 8.33426Z" fill="#261F20"/>
<path d="M24.5459 8.07715C24.4885 8.09594 24.4386 8.13231 24.4032 8.18106C24.3678 8.22981 24.3487 8.28846 24.3487 8.34864C24.3487 8.40883 24.3678 8.46748 24.4032 8.51623C24.4386 8.56498 24.4885 8.60134 24.5459 8.62014C24.6033 8.60134 24.6532 8.56498 24.6886 8.51623C24.7241 8.46748 24.7431 8.40883 24.7431 8.34864C24.7431 8.28846 24.7241 8.22981 24.6886 8.18106C24.6532 8.13231 24.6033 8.09594 24.5459 8.07715ZM24.5459 8.57155C24.4866 8.57155 24.4297 8.54807 24.3878 8.50627C24.3458 8.46446 24.3223 8.40776 24.3223 8.34864C24.3223 8.28952 24.3458 8.23282 24.3878 8.19102C24.4297 8.14922 24.4866 8.12573 24.5459 8.12573C24.6052 8.12573 24.6621 8.14922 24.7041 8.19102C24.746 8.23282 24.7696 8.28952 24.7696 8.34864C24.7696 8.40776 24.746 8.46446 24.7041 8.50627C24.6621 8.54807 24.6052 8.57155 24.5459 8.57155Z" fill="#261F20"/>
<path d="M15.8637 9.87189C15.8643 10.2429 15.7544 10.6058 15.5479 10.9145C15.3414 11.2232 15.0477 11.464 14.7039 11.6062C14.3601 11.7485 13.9816 11.7858 13.6165 11.7136C13.2514 11.6414 12.916 11.4627 12.6527 11.2004C12.3895 10.938 12.2103 10.6037 12.1378 10.2398C12.0653 9.87586 12.1028 9.49867 12.2455 9.15599C12.3883 8.81331 12.6298 8.52054 12.9395 8.31476C13.2493 8.10898 13.6134 7.99944 13.9856 8C14.4835 8.00076 14.9608 8.19822 15.3128 8.5491C15.6648 8.89998 15.863 9.37566 15.8637 9.87189Z" fill="url(#paint1_linear_6688_7292)"/>
<path style="mix-blend-mode:multiply" opacity="0.65" d="M15.8637 9.87189C15.8643 10.2429 15.7544 10.6058 15.5479 10.9145C15.3414 11.2232 15.0477 11.464 14.7039 11.6062C14.3601 11.7485 13.9816 11.7858 13.6165 11.7136C13.2514 11.6414 12.916 11.4627 12.6527 11.2004C12.3895 10.938 12.2103 10.6037 12.1378 10.2398C12.0653 9.87586 12.1028 9.49867 12.2455 9.15599C12.3883 8.81331 12.6298 8.52054 12.9395 8.31476C13.2493 8.10898 13.6134 7.99944 13.9856 8C14.4835 8.00076 14.9608 8.19822 15.3128 8.5491C15.6648 8.89998 15.863 9.37566 15.8637 9.87189Z" fill="url(#paint2_linear_6688_7292)"/>
</g>
<rect x="0.398386" y="0.875925" width="27.7462" height="17.2476" rx="1.12485" stroke="#e65917" stroke-opacity="1" stroke-width="0.374948"/>
<defs>
<linearGradient id="paint0_linear_6688_7292" x1="14.2715" y1="0.500977" x2="14.2715" y2="18.4985" gradientUnits="userSpaceOnUse">
<stop stop-color="#E96418"/>
<stop offset="1" stop-color="#F9A020"/>
</linearGradient>
<linearGradient id="paint1_linear_6688_7292" x1="14.9462" y1="11.3723" x2="13.6505" y2="9.3393" gradientUnits="userSpaceOnUse">
<stop stop-color="#FF9200"/>
<stop offset="0.21" stop-color="#FF8D00"/>
<stop offset="0.45" stop-color="#FF8000"/>
<stop offset="0.62" stop-color="#FF7100"/>
<stop offset="0.82" stop-color="#FF5E00"/>
<stop offset="1" stop-color="#FF5200"/>
</linearGradient>
<linearGradient id="paint2_linear_6688_7292" x1="14.7397" y1="11.3465" x2="12.8487" y2="7.63484" gradientUnits="userSpaceOnUse">
<stop stop-color="#FF7100" stop-opacity="0"/>
<stop offset="0.03" stop-color="#FF6E00" stop-opacity="0.03"/>
<stop offset="0.21" stop-color="#FF5A00" stop-opacity="0.25"/>
<stop offset="0.39" stop-color="#FF4900" stop-opacity="0.42"/>
<stop offset="0.56" stop-color="#FF3C00" stop-opacity="0.56"/>
<stop offset="0.72" stop-color="#FF3300" stop-opacity="0.66"/>
<stop offset="0.86" stop-color="#FF2D00" stop-opacity="0.72"/>
<stop offset="0.98" stop-color="#FF2B00" stop-opacity="0.74"/>
</linearGradient>
<clipPath id="clip0_6688_7292">
<rect x="0.0234375" y="0.500977" width="28.4961" height="17.9975" rx="1.49979" fill="white"/>
</clipPath>
</defs>
</svg>
