<svg width="29" height="19" viewBox="0 0 29 19" fill="none" xmlns="http://www.w3.org/2000/svg">
<rect x="0.511719" y="0.500977" width="28.4961" height="17.9975" rx="1.49979" fill="#0E4C96"/>
<rect x="0.886667" y="0.875925" width="27.7462" height="17.2476" rx="1.12485" stroke="black" stroke-opacity="0.1" stroke-width="0.749897"/>
<path fill-rule="evenodd" clip-rule="evenodd" d="M22.7536 13.1472C22.7536 13.4776 22.6892 13.8048 22.564 14.1101C22.4389 14.4154 22.2555 14.6928 22.0243 14.9265C21.793 15.1601 21.5185 15.3455 21.2164 15.4719C20.9143 15.5984 20.5905 15.6635 20.2635 15.6635H6.74512V5.71683C6.74507 5.38635 6.80945 5.05911 6.93457 4.75378C7.05969 4.44845 7.2431 4.17102 7.47433 3.93732C7.70556 3.70362 7.98008 3.51825 8.28221 3.39177C8.58435 3.26529 8.90818 3.2002 9.23521 3.2002H22.7536V13.1472Z" fill="white"/>
<path fill-rule="evenodd" clip-rule="evenodd" d="M18.3456 9.65024C18.7315 9.65892 19.1201 9.63321 19.5047 9.66359C19.8939 9.73705 19.9878 10.3331 19.6418 10.5284C19.4059 10.6566 19.1254 10.5758 18.8693 10.5985H18.3456V9.65024ZM19.7277 8.57707C19.8136 8.88293 19.5216 9.15806 19.2301 9.11566H18.3456C18.3515 8.82716 18.3333 8.51396 18.3545 8.24083C18.7087 8.25085 19.0666 8.22013 19.4188 8.25652C19.4947 8.27571 19.5637 8.31586 19.6183 8.37247C19.6729 8.42909 19.7108 8.49993 19.7277 8.57707ZM21.8567 4.03932C21.8732 4.62365 21.859 5.2387 21.8636 5.83505C21.8626 8.25919 21.8663 10.6833 21.862 13.1071C21.8464 14.0154 21.0498 14.8047 20.157 14.8231C19.2632 14.8264 18.3694 14.8234 17.4759 14.8244V11.1598C18.4497 11.1548 19.4241 11.1702 20.3972 11.1521C20.8489 11.1234 21.3435 10.8226 21.3643 10.3204C21.4175 9.81619 20.947 9.46726 20.5003 9.41216C20.3285 9.40749 20.3337 9.36141 20.5003 9.34138C20.9265 9.24822 21.2609 8.80279 21.1357 8.35636C21.0286 7.88689 20.5151 7.70525 20.0882 7.70625C19.2176 7.70024 18.3469 7.70525 17.4759 7.70358C17.4815 7.01941 17.464 6.33457 17.4851 5.65107C17.5542 4.75888 18.3707 4.02329 19.2513 4.03932H21.8567Z" fill="url(#paint0_linear_6688_7316)"/>
<path fill-rule="evenodd" clip-rule="evenodd" d="M7.63683 5.74355C7.65897 4.83667 8.45926 4.05366 9.35075 4.04064C10.2412 4.03764 11.1317 4.03997 12.0219 4.0393C12.0196 7.07382 12.0269 10.1087 12.0183 13.1435C11.9839 14.0394 11.1925 14.8074 10.3106 14.8231C9.41849 14.8264 8.52634 14.8237 7.63419 14.8244V11.0363C8.5009 11.2433 9.40957 11.3311 10.2935 11.1939C10.8221 11.108 11.4 10.8459 11.5788 10.292C11.7106 9.81784 11.6366 9.31932 11.6561 8.83283V7.70356H10.1263C10.1197 8.45051 10.1405 9.19878 10.1154 9.94506C10.0741 10.4035 9.62467 10.695 9.19677 10.6796C8.66578 10.685 7.61403 10.2906 7.61403 10.2906C7.61139 8.89093 7.62923 7.1386 7.63683 5.74355Z" fill="url(#paint1_linear_6688_7316)"/>
<path fill-rule="evenodd" clip-rule="evenodd" d="M12.5921 8.15986C12.5118 8.17722 12.5756 7.88272 12.5554 7.77086C12.5607 7.06466 12.5439 6.35778 12.5647 5.65224C12.6334 4.75638 13.4568 4.01879 14.3404 4.03949H16.9428C16.9405 7.07467 16.9478 10.1092 16.9395 13.1437C16.9048 14.0399 16.1135 14.8079 15.2316 14.8236C14.3394 14.8269 13.4473 14.8242 12.5551 14.8249V10.6745C13.1647 11.18 13.9925 11.2588 14.7518 11.2598C15.3241 11.2598 15.8927 11.1707 16.4485 11.0371V10.2771C15.822 10.5927 15.0858 10.793 14.3916 10.6117C13.9075 10.4898 13.556 10.017 13.5639 9.51184C13.5077 8.98661 13.8124 8.43233 14.3232 8.27639C14.9576 8.07538 15.6482 8.22898 16.243 8.48976C16.3702 8.5572 16.4994 8.64068 16.4485 8.42565V7.82796C15.4543 7.58888 14.3966 7.50073 13.3977 7.76118C13.1086 7.84332 12.8271 7.9682 12.5921 8.16019V8.15986Z" fill="url(#paint2_linear_6688_7316)"/>
<defs>
<linearGradient id="paint0_linear_6688_7316" x1="17.4757" y1="9.43188" x2="21.8636" y2="9.43188" gradientUnits="userSpaceOnUse">
<stop stop-color="#007B40"/>
<stop offset="1" stop-color="#55B330"/>
</linearGradient>
<linearGradient id="paint1_linear_6688_7316" x1="7.63449" y1="9.43192" x2="12.0222" y2="9.43192" gradientUnits="userSpaceOnUse">
<stop stop-color="#1D2970"/>
<stop offset="1" stop-color="#006DBA"/>
</linearGradient>
<linearGradient id="paint2_linear_6688_7316" x1="12.5551" y1="9.43218" x2="16.9432" y2="9.43218" gradientUnits="userSpaceOnUse">
<stop stop-color="#6E2B2F"/>
<stop offset="1" stop-color="#E30138"/>
</linearGradient>
</defs>
</svg>
