<svg width="30" height="19" viewBox="0 0 30 19" fill="none" xmlns="http://www.w3.org/2000/svg">
<rect x="0.527344" y="0.500977" width="28.4961" height="17.9975" rx="1.49979" fill="white"/>
<rect x="0.902292" y="0.875925" width="27.7462" height="17.2476" rx="1.12485" stroke="black" stroke-opacity="0.1" stroke-width="0.749897"/>
<path fill-rule="evenodd" clip-rule="evenodd" d="M24.2796 12.6979V12.487H24.2255L24.1628 12.6322L24.1 12.487H24.0456V12.6979H24.0841V12.5389L24.1427 12.6761H24.1828L24.2414 12.5386V12.6979H24.28H24.2796ZM23.9348 12.6979V12.5229H24.0047V12.4874H23.827V12.5229H23.897V12.6979H23.9348ZM24.291 9.56189C24.291 12.8263 21.6788 15.4724 18.4564 15.4724C15.2347 15.4724 12.6226 12.8263 12.6226 9.56189C12.6226 6.29788 15.2347 3.65137 18.4568 3.65137C21.6788 3.65137 24.291 6.29788 24.291 9.56189Z" fill="#F79F1A"/>
<path fill-rule="evenodd" clip-rule="evenodd" d="M17.0937 9.56189C17.0937 12.8263 14.4816 15.4724 11.2595 15.4724C8.03781 15.4724 5.42529 12.8263 5.42529 9.56189C5.42529 6.29788 8.03743 3.65137 11.2599 3.65137C14.4816 3.65137 17.0937 6.29788 17.0937 9.56189Z" fill="#EA001B"/>
<path fill-rule="evenodd" clip-rule="evenodd" d="M14.8578 4.90918C14.1604 5.46243 13.5967 6.16883 13.2095 6.97487C12.8223 7.78091 12.6218 8.66543 12.6231 9.56141C12.6231 11.4502 13.4965 13.1326 14.8578 14.2148C16.2191 13.1326 17.0926 11.4502 17.0926 9.56141C17.0939 8.66543 16.8933 7.78091 16.5061 6.97487C16.1189 6.16883 15.5553 5.46243 14.8578 4.90918Z" fill="#FF5F01"/>
</svg>
