<svg viewBox="0 0 64 40" fill="none" xmlns="http://www.w3.org/2000/svg"><path d="M0 4a4 4 0 0 1 4-4h56a4 4 0 0 1 4 4v32a4 4 0 0 1-4 4H4a4 4 0 0 1-4-4V4Z" fill="#fff"/><path d="M18.671 6h11.053c1.543 0 2.503 1.258 2.142 2.806L26.723 30.9c-.364 1.542-1.906 2.8-3.452 2.8H12.218c-1.543 0-2.503-1.258-2.142-2.8l5.147-22.094C15.583 7.258 17.127 6 18.67 6Z" fill="#E21836"/><path d="M28.804 6h12.711c1.543 0 .846 1.258.486 2.806L36.854 30.9c-.36 1.542-.248 2.8-1.794 2.8H22.349c-1.546 0-2.503-1.258-2.139-2.8l5.145-22.094C25.718 7.258 27.26 6 28.802 6" fill="#00447C"/><path d="M41.011 6h11.053c1.544 0 2.505 1.258 2.142 2.806L49.06 30.9c-.362 1.542-1.906 2.8-3.452 2.8H34.56c-1.546 0-2.505-1.258-2.144-2.8l5.147-22.094C37.92 7.258 39.466 6 41.01 6Z" fill="#007B84"/><path d="M21.559 13.081c-1.137.01-1.473 0-1.58-.026-.04.196-.808 3.735-.81 3.736-.167.716-.286 1.227-.693 1.557-.23.19-.52.29-.817.284-.502 0-.797-.251-.847-.726l-.009-.163.153-.964s.806-3.223.95-3.65l.012-.048c-1.567.014-1.846 0-1.865-.026-.01.035-.049.234-.049.234l-.823 3.634-.07.309-.138 1.008c-.008.26.052.519.175.749.375.655 1.444.754 2.047.754.78 0 1.51-.167 2.003-.468.856-.506 1.082-1.298 1.28-2.002l.093-.36s.83-3.348.97-3.783a.141.141 0 0 1 .016-.049h.002Zm2.82 2.7c-.198 0-.564.049-.893.21-.118.062-.23.131-.35.203l.107-.389-.059-.064c-.695.14-.85.16-1.494.25l-.053.035c-.075.62-.143 1.084-.418 2.3-.106.45-.215.902-.324 1.35l.03.056c.658-.034.857-.034 1.429-.026l.047-.05c.073-.372.083-.46.242-1.213.077-.359.234-1.144.312-1.425.13-.072.272-.117.42-.131.32 0 .282.28.268.391-.06.446-.144.888-.25 1.324l-.079.338c-.055.252-.118.494-.173.742l.024.05c.65-.034.848-.034 1.402-.026l.066-.05c.099-.58.128-.736.307-1.584l.09-.39c.173-.762.26-1.147.128-1.462-.139-.352-.471-.439-.78-.439h.002Zm3.153.797c-.346.068-.567.111-.785.139a22 22 0 0 1-.762.114l-.026.025-.025.017c-.034.25-.059.464-.104.717-.04.26-.098.557-.197.983a3.853 3.853 0 0 1-.158.555c-.042.116-.088.227-.173.547l.019.03.017.027c.312-.015.517-.026.725-.027.21-.007.426 0 .762.001l.03-.022.03-.028c.05-.29.056-.367.087-.508.028-.15.08-.36.203-.92.06-.263.125-.525.186-.794l.192-.793-.009-.031-.012-.03v-.002Zm.007-1.074c-.314-.186-.865-.127-1.234.13-.37.25-.412.606-.1.793.308.18.861.127 1.228-.131.37-.257.416-.608.104-.792h.002Zm1.896 4.286c.634 0 1.286-.174 1.775-.694.376-.42.549-1.046.608-1.305.196-.854.043-1.253-.147-1.495-.29-.371-.801-.49-1.331-.49-.32 0-1.078.032-1.673.578-.426.395-.624.93-.741 1.444-.12.523-.257 1.466.608 1.816.268.114.653.146.901.146Zm-.048-1.922c.145-.647.318-1.19.758-1.19.347 0 .371.403.217 1.053-.028.143-.154.679-.324.908-.12.168-.26.27-.416.27-.047 0-.322 0-.326-.409a2.71 2.71 0 0 1 .09-.632Zm4.018 1.838.049-.05c.07-.372.081-.46.237-1.213.078-.359.24-1.144.316-1.425.143-.065.282-.131.42-.131.32 0 .28.28.268.391-.013.188-.129.798-.25 1.324l-.076.338c-.06.252-.121.494-.177.742l.024.052c.652-.036.843-.036 1.399-.028l.07-.05c.096-.582.122-.736.306-1.584l.087-.39c.173-.762.263-1.147.133-1.462-.142-.352-.478-.439-.78-.439a2.18 2.18 0 0 0-1.242.413l.1-.389-.054-.064c-.696.14-.854.16-1.497.25l-.048.035a19.715 19.715 0 0 1-.418 2.3c-.106.45-.215.902-.324 1.35l.03.056c.658-.034.855-.034 1.427-.026Zm4.785.026c.042-.199.284-1.386.288-1.386 0 0 .208-.867.218-.9 0 0 .066-.09.132-.126h.095c.905 0 1.927 0 2.728-.59a2.908 2.908 0 0 0 1.083-1.725c.043-.177.076-.389.076-.6 0-.277-.057-.554-.218-.768-.407-.572-1.22-.582-2.16-.585l-.462.003c-1.203.016-1.685.01-1.882-.014l-.049.243-.43 2-1.08 4.441c1.051-.014 1.48-.014 1.661.007Zm.797-3.544.458-1.984.014-.102.006-.078.182.019.968.083c.372.144.525.517.419 1.002a1.457 1.457 0 0 1-.756.994c-.303.153-.676.165-1.06.165h-.248l.017-.099Zm2.851 1.716c-.121.516-.26 1.457.601 1.794.276.116.522.152.772.138.265-.014.509-.147.736-.338l-.06.236.038.052c.62-.028.812-.028 1.485-.023l.06-.046c.097-.576.19-1.135.446-2.24.123-.528.248-1.05.374-1.576l-.02-.057c-.692.128-.878.155-1.545.249l-.052.042-.019.156a.954.954 0 0 0-.485-.399c-.298-.118-.995.033-1.594.579-.42.388-.623.922-.737 1.433Zm1.456.031c.149-.634.32-1.173.762-1.173.278 0 .427.26.395.698-.022.11-.048.226-.08.356-.043.19-.091.376-.138.563a1.32 1.32 0 0 1-.163.33c-.114.162-.385.26-.539.26-.045 0-.317 0-.327-.401.006-.214.036-.426.091-.633h-.001Zm7.608-2.097-.056-.062c-.686.139-.81.161-1.44.246l-.047.047-.007.03-.002-.011c-.47 1.083-.455.849-.838 1.702l-.004-.104-.095-1.848-.06-.062c-.72.139-.737.161-1.401.246l-.052.047c-.007.022-.007.047-.01.073l.003.01c.083.423.064.33.147.998.038.33.09.659.129.983.066.542.104.81.182 1.64-.447.737-.555 1.018-.986 1.668l.003.005-.303.482c-.035.05-.066.085-.111.099a.45.45 0 0 1-.2.03h-.168l-.25.831.859.016c.502-.004.821-.24.99-.555l.542-.925h-.009l.055-.066c.364-.78 3.127-5.52 3.127-5.52h.002ZM41.837 26.77h-.364l1.348-4.459h.447l.142-.46.014.512c-.017.315.23.596.884.55h.754l.26-.858h-.284c-.163 0-.24-.042-.229-.13l-.014-.52H43.4v.003c-.452.009-1.802.043-2.074.116a2.444 2.444 0 0 0-.68.335l.138-.46h-1.307l-.272.912-1.367 4.528h-.266l-.26.853h2.605l-.087.284h1.283l.085-.284h.358l.283-.922Zm-1.068-3.553a6.08 6.08 0 0 0-.6.234l.347-1.14h1.04l-.251.832s-.32.017-.537.074h.001Zm.02 1.63s-.326.04-.541.088a5.192 5.192 0 0 0-.607.267L40 24.016h1.043l-.253.83Zm-.583 1.933h-1.04l.302-1h1.038l-.3 1Zm2.51-2.764h1.502l-.217.699h-1.521l-.229.762h1.333l-1.009 1.421a.407.407 0 0 1-.204.17.606.606 0 0 1-.27.078h-.37l-.255.837h.968c.502 0 .797-.229 1.017-.529l.691-.946.15.96a.45.45 0 0 0 .247.328c.097.048.196.132.338.144.15.007.26.012.333.012h.475l.285-.936h-.187c-.107 0-.294-.019-.324-.052-.03-.041-.03-.104-.048-.201l-.151-.964h-.617l.27-.32h1.519l.233-.764h-1.405l.218-.699h1.404l.26-.863h-4.18l-.256.863Zm-12.682 2.96.35-1.166h1.44l.263-.867h-1.442l.22-.719h1.41l.26-.839H29.01l-.254.84h.8l-.213.717h-.804l-.265.884h.8l-.467 1.542c-.063.203.03.28.088.376a.39.39 0 0 0 .258.189c.12.031.245.048.37.05h1.623l.29-.962-.72.1c-.138 0-.525-.017-.481-.145Zm.164-5.582-.364.659a.765.765 0 0 1-.213.277c-.055.035-.166.049-.326.049h-.19l-.255.843h.633c.304 0 .537-.112.65-.168.119-.064.15-.027.242-.116l.215-.185h1.975l.26-.879h-1.443l.251-.48H30.2Zm2.917 5.598c-.035-.047-.01-.134.041-.312l.54-1.785h1.921c.28-.005.482-.009.614-.017.14-.016.294-.066.46-.156a.867.867 0 0 0 .337-.31c.149-.232.26-.485.33-.751l.68-2.262-1.993.013s-.613.09-.883.19c-.274.111-.662.423-.662.423l.18-.62h-1.23l-1.727 5.715a3.522 3.522 0 0 0-.11.48c-.004.104.131.208.218.286.104.078.256.066.402.078.156.012.372.017.676.017h.946l.29-.979-.848.08a.217.217 0 0 1-.182-.09Zm.929-3.305h2.017l-.128.402c-.018.009-.061-.02-.265.004h-1.747l.123-.406Zm.405-1.348h2.033l-.145.485s-.959-.01-1.113.017c-.676.118-1.07.479-1.07.479l.295-.981Zm1.53 3.097a.21.21 0 0 1-.081.123c-.04.027-.107.036-.206.036h-.286l.017-.489h-1.196l-.05 2.392c0 .173.016.274.142.353.127.1.515.113 1.04.113h.749l.27-.896-.651.035-.217.013c-.03-.012-.06-.024-.09-.055-.028-.028-.073-.01-.066-.184l.005-.613.685-.028c.369 0 .526-.121.66-.236.13-.109.171-.235.22-.405l.114-.542H36.1l-.121.38.002.003Z" fill="#FEFEFE"/><path d="M4 1h56v-2H4v2Zm59 3v32h2V4h-2Zm-3 35H4v2h56v-2ZM1 36V4h-2v32h2Zm3 3a3 3 0 0 1-3-3h-2a5 5 0 0 0 5 5v-2Zm59-3a3 3 0 0 1-3 3v2a5 5 0 0 0 5-5h-2ZM60 1a3 3 0 0 1 3 3h2a5 5 0 0 0-5-5v2ZM4-1a5 5 0 0 0-5 5h2a3 3 0 0 1 3-3v-2Z" fill="#DDD"/></svg>
