<svg width="29" height="19" viewBox="0 0 29 19" fill="none" xmlns="http://www.w3.org/2000/svg">
<rect x="0.03125" y="0.500977" width="28.4961" height="17.9975" rx="1.49979" fill="white"/>
<rect x="0.406199" y="0.875925" width="27.7462" height="17.2476" rx="1.12485" stroke="black" stroke-opacity="0.1" stroke-width="0.749897"/>
<path d="M12.7906 12.7643H11.0713L12.1467 6.46484H13.8659L12.7906 12.7643Z" fill="#1C34C3"/>
<path d="M19.0237 6.61878C18.6846 6.49132 18.1467 6.35059 17.4816 6.35059C15.7837 6.35059 14.5881 7.20834 14.5808 8.43467C14.5667 9.33945 15.4368 9.84199 16.0876 10.1437C16.7528 10.4519 16.9789 10.6532 16.9789 10.9279C16.9721 11.35 16.4414 11.5445 15.9464 11.5445C15.26 11.5445 14.8921 11.4442 14.3332 11.2094L14.1068 11.1088L13.8662 12.5228C14.2695 12.6969 15.0124 12.8513 15.7837 12.8581C17.5878 12.8581 18.7623 12.0136 18.7762 10.7068C18.783 9.98967 18.3236 9.44019 17.333 8.99118C16.7316 8.70295 16.3634 8.5086 16.3634 8.21368C16.3704 7.94558 16.6749 7.67097 17.3537 7.67097C17.9126 7.65752 18.3233 7.78481 18.6344 7.91218L18.7899 7.97907L19.0237 6.61878Z" fill="#1C34C3"/>
<path fill-rule="evenodd" clip-rule="evenodd" d="M22.1014 6.46484H23.4313L24.8184 12.7642H23.2264C23.2264 12.7642 23.0707 12.0404 23.0213 11.8193H20.8138L20.453 12.7642H18.6489L21.2028 6.98751C21.3797 6.57868 21.6913 6.46484 22.1014 6.46484ZM21.9952 8.76986C21.9952 8.76986 21.4503 10.1705 21.3087 10.5324H22.7378C22.6671 10.2174 22.3415 8.70956 22.3415 8.70956L22.2214 8.16676C22.1708 8.30653 22.0976 8.49869 22.0482 8.6283C22.0148 8.71617 21.9923 8.77529 21.9952 8.76986Z" fill="#1C34C3"/>
<path fill-rule="evenodd" clip-rule="evenodd" d="M3.62254 6.46484H6.38878C6.76372 6.47812 7.06797 6.59204 7.16697 6.99437L7.7679 9.8875C7.76808 9.88809 7.76826 9.88868 7.76845 9.88927L7.95244 10.7605L9.63623 6.46484H11.4543L8.75179 12.7576H6.93365L5.40123 7.28403C4.87246 6.99114 4.26898 6.75559 3.59424 6.59213L3.62254 6.46484Z" fill="#1C34C3"/>
</svg>
