<svg width="51" height="51" viewBox="0 0 51 51" fill="none" xmlns="http://www.w3.org/2000/svg">
<path d="M40.9774 0H10.0226C7.36517 0.0023486 4.81724 1.05905 2.93815 2.93815C1.05905 4.81724 0.0023486 7.36517 0 10.0226V40.9774C0.0023486 43.6348 1.05905 46.1828 2.93815 48.0619C4.81724 49.9409 7.36517 50.9977 10.0226 51H40.9774C43.6348 50.9977 46.1828 49.9409 48.0619 48.0619C49.9409 46.1828 50.9977 43.6348 51 40.9774V10.0226C50.9977 7.36517 49.9409 4.81724 48.0619 2.93815C46.1828 1.05905 43.6348 0.0023486 40.9774 0ZM43.0085 31.1854C42.4941 33.119 38.9285 33.1899 37.7843 34.4228C37.4629 35.1747 37.3289 35.9935 37.3941 36.8087C37.4828 40.4363 36.0282 41.5096 32.6045 40.3565C30.3605 39.6381 29.9437 39.7002 28.5423 41.6426C26.449 44.7115 24.5421 44.6849 22.4577 41.6426C21.899 40.9064 21.3224 40.1525 20.808 39.984C19.1494 39.6381 16.2313 41.6692 14.6791 40.4363C13.0205 39.3454 14.0494 35.9306 13.2157 34.4671C12.0715 33.2343 8.50591 33.1633 7.99148 31.2297C7.29965 29.3849 10.1734 27.2296 10.3242 25.5443C10.1645 23.8591 7.29965 21.7038 7.99148 19.859C8.50591 17.9254 12.0715 17.8544 13.2157 16.6216C14.0494 15.1581 13.0205 11.7433 14.6791 10.6523C16.2224 9.41061 19.1583 11.4595 20.808 11.1047C21.3224 10.9362 21.899 10.2177 22.4577 9.44609C24.551 6.37722 26.4579 6.40383 28.5423 9.44609C29.9348 11.3087 30.3517 11.4063 32.5957 10.6878C36.037 9.48157 37.4739 10.5814 37.3941 14.1913C37.3222 15.0059 37.4532 15.8256 37.7755 16.5772C38.3833 17.1053 39.1111 17.4767 39.8953 17.6593C43.3544 18.6882 44.0019 20.3823 41.7845 23.2737C41.2375 23.9134 40.8567 24.678 40.6758 25.5C40.8355 27.1852 43.7003 29.3405 43.0085 31.1854Z" fill="#EE5A2F"/>
<path d="M32.1863 25.6288C32.3216 25.4835 32.3426 25.3018 32.2462 25.1238C32.1499 24.9457 31.9416 24.8453 31.7055 24.8045L26.5434 23.9112L28.9564 16.5807C29.0384 16.3322 28.8811 16.0328 28.5775 15.905C28.5149 15.8786 28.45 15.86 28.3847 15.8487C28.134 15.8053 27.8778 15.8754 27.7296 16.0377L18.8584 25.7528C18.7253 25.8985 18.6991 26.1187 18.7959 26.2958C18.8928 26.4729 19.0891 26.6374 19.3243 26.6781L24.4183 27.5596L22.1213 34.6186C22.0408 34.8663 22.2059 35.1149 22.5078 35.2426C22.5698 35.2688 22.6345 35.2843 22.6991 35.2954C22.9493 35.3387 23.205 35.2716 23.3545 35.1109L32.1863 25.6288Z" fill="#EE5A2F"/>
</svg>
