<?xml version="1.0" encoding="UTF-8"?><svg id="Layer_2" xmlns="http://www.w3.org/2000/svg" viewBox="0 0 185 196.951"><g id="Layer_1-2"><path d="m184.617,190.436c-9.815-27.169-19.626-54.339-29.436-81.509-3.295-9.126-27.465-73.446-27.714-72.916-3.537,7.522-18.243,38.919-21.022,44.701-.899,1.871,14.449,49.074,15.322,51.058.965,2.194,1.672,4.501,2.487,6.761,3.088,8.562,6.124,17.144,9.279,25.682,2.198,5.948,5.748,11.071,10.039,15.706,2.777,2.999,5.821,5.718,9.193,7.994,3.897,2.631,8.002,4.873,12.587,6.244,5.832,1.744,11.626,2.215,17.535.621.839-.226,1.42-.726,1.83-1.515.513-.99.241-1.888-.098-2.826Zm-20.602-16.116c-1.703,1.198-3.442,1.79-5.427.564-1.809-.429-2.331-1.997-2.822-3.516-2.86-8.839-6.149-17.526-9.326-26.251-4.384-12.044-8.491-24.191-13.194-36.119-.563-1.427-1-2.913-1.372-4.402-.665-2.661.5-4.834,2.976-5.749,2.689-.993,4.986-.259,6.134,2.357,1.462,3.333,2.661,6.785,3.904,10.211,6.545,18.05,13.068,36.108,19.599,54.163.484,1.339.937,2.682,1.206,4.092.364,1.909-.011,3.479-1.678,4.651Zm-45.756-28.529c0,2.095-1.714,3.809-3.809,3.809h-14.724l-3.66,6.34c-.415.718-1.035,1.241-1.743,1.557-.045.028-.081.065-.128.092-1.814,1.048-4.156.42-5.203-1.394l-6.224-10.78-6.224,10.78c-.043.075-.101.135-.148.205-.067.1-.135.199-.211.293-.081.099-.168.19-.257.279-.089.09-.18.176-.279.257-.094.077-.193.145-.293.212-.07.047-.131.105-.205.148-.045.026-.094.039-.14.063-.096.05-.194.09-.294.132-.135.057-.269.112-.407.152-.095.028-.192.044-.289.065-.14.029-.28.058-.421.071-.118.011-.236.008-.355.009-.119,0-.237.002-.355-.009-.141-.013-.281-.042-.421-.071-.097-.02-.193-.037-.289-.065-.138-.04-.272-.095-.407-.152-.099-.042-.198-.082-.294-.132-.046-.024-.094-.037-.14-.063-.074-.043-.135-.101-.205-.148-.101-.067-.199-.135-.293-.212-.099-.081-.19-.168-.279-.257-.09-.089-.176-.18-.257-.279-.077-.094-.144-.193-.211-.293-.047-.071-.105-.131-.148-.205l-4.579-7.931c-5.27,11.207-10.535,22.417-15.764,33.644-4.909,10.541-17.206,17.628-30.395,14.149-13.228-3.49-20.774-16.437-18.935-28.865.401-2.712,1.211-5.246,2.367-7.706C20.372,121.742,51.644,54.252,69.32,16.483c2.174-4.644,4.982-8.684,9.22-11.605C85.564.038,93.263-1.235,101.4,1.214c10.966,3.3,18.437,13.903,18.165,25.342-.088,3.675-.835,7.157-2.421,10.514-9.061,19.184-31.582,68.154-40.6,87.359.008.004.017.008.025.012-2.415,5.143-4.835,10.284-7.253,15.426l3.929,6.806,6.224-10.78c.043-.075.101-.135.148-.205.067-.101.135-.199.211-.293.081-.099.168-.19.257-.279.089-.09.18-.176.279-.257.094-.077.193-.144.293-.211.071-.047.131-.105.205-.148.045-.026.094-.039.14-.063.095-.05.194-.09.293-.132.135-.057.269-.112.408-.152.095-.028.191-.044.288-.065.141-.029.28-.058.422-.071.118-.011.236-.009.354-.009.119,0,.237-.002.354.009.142.013.281.042.422.071.097.02.193.037.288.065.138.04.272.095.407.152.099.042.197.082.293.132.046.024.095.037.14.063.075.043.135.101.205.148.1.067.199.135.293.211.099.081.19.168.279.257.09.089.176.18.257.279.077.094.144.192.211.293.047.071.105.131.148.205l6.388,11.065,1.775-3.073c.792-1.373,2.326-2.062,3.811-1.865.122-.012.239-.037.364-.037h16.046c2.095,0,3.809,1.714,3.809,3.809Z" fill="#cdcdcd"/></g></svg>